<svg version="1.1" xmlns="http://www.w3.org/2000/svg" viewBox="0 0 762.1152503352348 478.5786865543538" width="762.1152503352348" height="478.5786865543538">
  <!-- svg-source:excalidraw -->
  
  <defs>
    <style class="style-fonts">
      @font-face {
        font-family: "Virgil";
        src: url("https://excalidraw.com/Virgil.woff2");
      }
      @font-face {
        font-family: "Cascadia";
        src: url("https://excalidraw.com/Cascadia.woff2");
      }
    </style>
  </defs>
  <g stroke-opacity="0.3" fill-opacity="0.3" transform="translate(10 10) rotate(0 261.5 225)"><text x="0" y="311" font-family="Helvetica, Segoe UI Emoji" font-size="375.27473966116406px" fill="#007d9c" text-anchor="start" style="white-space: pre;" direction="ltr">mq</text></g><g stroke-linecap="round"><g transform="translate(604.6204056583248 265.74264757841075) rotate(70.7911098736198 2.6295950782230335 -0.13195715045105771)" fill-rule="evenodd"><path d="M0 0 L4.16 4.61 L6.61 3.04 L1.35 -4.83 L-0.62 -4.12 L-1.34 -2.97 L0 0" stroke="none" stroke-width="0" fill="#ffffff" fill-rule="evenodd"></path><path d="M0 0 C0.28 0.37, 0.96 1.42, 1.65 2.19 C2.34 2.96, 3.33 4.47, 4.16 4.61 C4.98 4.75, 6.44 3.77, 6.61 3.04 C6.78 2.32, 5.71 1.17, 5.17 0.24 C4.63 -0.7, 4.01 -1.73, 3.37 -2.57 C2.74 -3.42, 2.02 -4.57, 1.35 -4.83 C0.69 -5.09, -0.17 -4.43, -0.62 -4.12 C-1.07 -3.81, -1.27 -3.36, -1.34 -2.97 C-1.42 -2.58, -1.29 -2.28, -1.07 -1.78 C-0.85 -1.29, -0.18 -0.3, 0 0 M0 0 C0.28 0.37, 0.96 1.42, 1.65 2.19 C2.34 2.96, 3.33 4.47, 4.16 4.61 C4.98 4.75, 6.44 3.77, 6.61 3.04 C6.78 2.32, 5.71 1.17, 5.17 0.24 C4.63 -0.7, 4.01 -1.73, 3.37 -2.57 C2.74 -3.42, 2.02 -4.57, 1.35 -4.83 C0.69 -5.09, -0.17 -4.43, -0.62 -4.12 C-1.07 -3.81, -1.27 -3.36, -1.34 -2.97 C-1.42 -2.58, -1.29 -2.28, -1.07 -1.78 C-0.85 -1.29, -0.18 -0.3, 0 0" stroke="#000000" stroke-width="1" fill="none"></path></g></g><g stroke-linecap="round"><g transform="translate(611.4195822301336 315.80692123543906) rotate(61.296384782494115 3.230309759155162 -0.7662291337696843)" fill-rule="evenodd"><path d="M0 0 L4.26 3.78 L6.79 2.52 L7.21 -0.27 L4.26 -4.08 L2.01 -5.32 L0 -4.25 L-0.94 -2.25 L0 0" stroke="none" stroke-width="0" fill="#ffffff" fill-rule="evenodd"></path><path d="M0 0 C0.29 0.34, 1.04 1.38, 1.75 2.01 C2.46 2.64, 3.42 3.7, 4.26 3.78 C5.1 3.87, 6.3 3.2, 6.79 2.52 C7.29 1.84, 7.64 0.83, 7.21 -0.27 C6.79 -1.37, 5.13 -3.24, 4.26 -4.08 C3.39 -4.93, 2.72 -5.3, 2.01 -5.32 C1.3 -5.35, 0.49 -4.76, 0 -4.25 C-0.5 -3.74, -0.94 -2.96, -0.94 -2.25 C-0.94 -1.54, -0.16 -0.37, 0 0 M0 0 C0.29 0.34, 1.04 1.38, 1.75 2.01 C2.46 2.64, 3.42 3.7, 4.26 3.78 C5.1 3.87, 6.3 3.2, 6.79 2.52 C7.29 1.84, 7.64 0.83, 7.21 -0.27 C6.79 -1.37, 5.13 -3.24, 4.26 -4.08 C3.39 -4.93, 2.72 -5.3, 2.01 -5.32 C1.3 -5.35, 0.49 -4.76, 0 -4.25 C-0.5 -3.74, -0.94 -2.96, -0.94 -2.25 C-0.94 -1.54, -0.16 -0.37, 0 0" stroke="#000000" stroke-width="1" fill="none"></path></g></g><g stroke-linecap="round"><g transform="translate(615.774104140504 197.0359349638402) rotate(356.57434765220694 1.7128135858625342 -5.116554369363257)" fill-rule="evenodd"><path d="M0 0 L-3.44 -5.73 L-2.46 -8.74 L1.23 -10.19 L5 -7.25 L6.87 -4.54 L0 0" stroke="none" stroke-width="0" fill="#bcdec2" fill-rule="evenodd"></path><path d="M0 0 C-0.35 -0.44, -1.51 -1.71, -2.08 -2.66 C-2.65 -3.62, -3.38 -4.72, -3.44 -5.73 C-3.5 -6.74, -3.24 -8, -2.46 -8.74 C-1.68 -9.48, -0.01 -10.44, 1.23 -10.19 C2.48 -9.94, 4.09 -8.18, 5 -7.25 C5.9 -6.32, 6.46 -5.13, 6.64 -4.63 C6.83 -4.13, 7.24 -5.02, 6.13 -4.25 C5.02 -3.47, 1.02 -0.71, 0 0 M0 0 C-0.35 -0.44, -1.51 -1.71, -2.08 -2.66 C-2.65 -3.62, -3.38 -4.72, -3.44 -5.73 C-3.5 -6.74, -3.24 -8, -2.46 -8.74 C-1.68 -9.48, -0.01 -10.44, 1.23 -10.19 C2.48 -9.94, 4.09 -8.18, 5 -7.25 C5.9 -6.32, 6.46 -5.13, 6.64 -4.63 C6.83 -4.13, 7.24 -5.02, 6.13 -4.25 C5.02 -3.47, 1.02 -0.71, 0 0" stroke="#bccfde" stroke-width="1" fill="none"></path></g></g><g stroke-linecap="round"><g transform="translate(618.4765589288085 194.78379353184204) rotate(343.0962830115082 -1.1635865670925511 -1.947124974912839)" fill-rule="evenodd"><path d="" stroke="none" stroke-width="0" fill="#bcdec2" fill-rule="evenodd"></path><path d="M0 0 C-0.18 -0.31, -0.71 -1.2, -1.1 -1.85 C-1.48 -2.5, -2.12 -3.55, -2.33 -3.89 M0 0 C-0.18 -0.31, -0.71 -1.2, -1.1 -1.85 C-1.48 -2.5, -2.12 -3.55, -2.33 -3.89" stroke="#000000" stroke-width="1" fill="none"></path></g></g><g stroke-linecap="round"><g transform="translate(615.793332461309 197.0237258962423) rotate(356.57434765220694 1.6964265027146013 -5.116554369363229)"><path d="M0 0 C-0.35 -0.44, -1.51 -1.71, -2.08 -2.66 C-2.65 -3.62, -3.38 -4.72, -3.44 -5.73 C-3.5 -6.74, -3.24 -8, -2.46 -8.74 C-1.68 -9.48, -0.01 -10.44, 1.23 -10.19 C2.48 -9.94, 4.06 -8.21, 5 -7.25 C5.93 -6.29, 6.53 -4.91, 6.84 -4.45 M0 0 C-0.35 -0.44, -1.51 -1.71, -2.08 -2.66 C-2.65 -3.62, -3.38 -4.72, -3.44 -5.73 C-3.5 -6.74, -3.24 -8, -2.46 -8.74 C-1.68 -9.48, -0.01 -10.44, 1.23 -10.19 C2.48 -9.94, 4.06 -8.21, 5 -7.25 C5.93 -6.29, 6.53 -4.91, 6.84 -4.45" stroke="#000000" stroke-width="1" fill="none"></path></g></g><g stroke-linecap="round"><g transform="translate(618.4689390894993 194.34617963756466) rotate(343.0962830115082 0.11281008064662501 -1.90217153099519)" fill-rule="evenodd"><path d="" stroke="none" stroke-width="0" fill="#bcdec2" fill-rule="evenodd"></path><path d="M0 0 C-0.01 -0.38, -0.14 -1.66, -0.09 -2.3 C-0.03 -2.93, 0.26 -3.55, 0.33 -3.8 M0 0 C-0.01 -0.38, -0.14 -1.66, -0.09 -2.3 C-0.03 -2.93, 0.26 -3.55, 0.33 -3.8" stroke="#000000" stroke-width="1" fill="none"></path></g></g><g stroke-linecap="round"><g transform="translate(618.4885280437746 194.86487499515988) rotate(343.0962830115082 -1.1635865670925511 -1.947124974912839)" fill-rule="evenodd"><path d="" stroke="none" stroke-width="0" fill="#bcdec2" fill-rule="evenodd"></path><path d="M0 0 C-0.18 -0.31, -0.71 -1.2, -1.1 -1.85 C-1.48 -2.5, -2.12 -3.55, -2.33 -3.89 M0 0 C-0.18 -0.31, -0.71 -1.2, -1.1 -1.85 C-1.48 -2.5, -2.12 -3.55, -2.33 -3.89" stroke="#000000" stroke-width="1" fill="none"></path></g></g><g stroke-linecap="round"><g transform="translate(618.4809082044655 194.42726110088222) rotate(343.0962830115082 0.11281008064662501 -1.90217153099519)" fill-rule="evenodd"><path d="" stroke="none" stroke-width="0" fill="#bcdec2" fill-rule="evenodd"></path><path d="M0 0 C-0.01 -0.38, -0.14 -1.66, -0.09 -2.3 C-0.03 -2.93, 0.26 -3.55, 0.33 -3.8 M0 0 C-0.01 -0.38, -0.14 -1.66, -0.09 -2.3 C-0.03 -2.93, 0.26 -3.55, 0.33 -3.8" stroke="#000000" stroke-width="1" fill="none"></path></g></g><g stroke-linecap="round"><g transform="translate(693.4579946106307 276.3486759346279) rotate(0 -42.505628633545946 -23.645999370624963)" fill-rule="evenodd"><path d="M0 0 L-2.32 18.11 L-5.35 25.44 L-9.97 31.67 L-16.67 36.91 L-24.91 40.95 L-34.49 43.68 L-44.88 44.9 L-56 44.34 L-66.39 42.21 L-74.49 39.17 L-80.53 33.67 L-84.07 24.56 L-85.58 11.42 L-85.56 2.15 L-82.15 -53.83 L-82.71 -64.57 L-81.98 -73.92 L-77.52 -81.58 L-70.21 -87.34 L-59.23 -90.8 L-47.25 -92.19 L-36.85 -91.43 L-27.54 -89.03 L-19.69 -85.49 L-13.2 -80.76 L-8.19 -75.3 L-4.37 -68.02 L-0.34 -52.68 L0.65 -34.39 L0 0" stroke="none" stroke-width="0" fill="#bcdec2" fill-rule="evenodd"></path><path d="M0 0 C-0.39 3.02, -0.66 12.83, -2.32 18.11 C-3.98 23.39, -6.2 27.87, -9.97 31.67 C-13.73 35.48, -19.09 38.75, -24.91 40.95 C-30.73 43.16, -37.97 44.69, -44.88 44.9 C-51.79 45.11, -60.44 44.09, -66.39 42.21 C-72.33 40.34, -77.33 38.8, -80.53 33.67 C-83.73 28.54, -85.07 21.92, -85.58 11.42 C-86.09 0.92, -84.14 -18.45, -83.57 -29.33 C-83 -40.2, -82.41 -46.4, -82.15 -53.83 C-81.88 -61.26, -83.97 -68.34, -81.98 -73.92 C-79.99 -79.51, -76 -84.29, -70.21 -87.34 C-64.42 -90.38, -54.36 -91.9, -47.25 -92.19 C-40.14 -92.47, -33.21 -90.94, -27.54 -89.03 C-21.86 -87.13, -17.06 -84.26, -13.2 -80.76 C-9.34 -77.25, -6.64 -73.95, -4.37 -68.02 C-2.11 -62.08, -0.33 -56.5, 0.4 -45.17 C1.13 -33.83, 0.07 -7.53, 0 0 M0 0 C-0.39 3.02, -0.66 12.83, -2.32 18.11 C-3.98 23.39, -6.2 27.87, -9.97 31.67 C-13.73 35.48, -19.09 38.75, -24.91 40.95 C-30.73 43.16, -37.97 44.69, -44.88 44.9 C-51.79 45.11, -60.44 44.09, -66.39 42.21 C-72.33 40.34, -77.33 38.8, -80.53 33.67 C-83.73 28.54, -85.07 21.92, -85.58 11.42 C-86.09 0.92, -84.14 -18.45, -83.57 -29.33 C-83 -40.2, -82.41 -46.4, -82.15 -53.83 C-81.88 -61.26, -83.97 -68.34, -81.98 -73.92 C-79.99 -79.51, -76 -84.29, -70.21 -87.34 C-64.42 -90.38, -54.36 -91.9, -47.25 -92.19 C-40.14 -92.47, -33.21 -90.94, -27.54 -89.03 C-21.86 -87.13, -17.06 -84.26, -13.2 -80.76 C-9.34 -77.25, -6.64 -73.95, -4.37 -68.02 C-2.11 -62.08, -0.33 -56.5, 0.4 -45.17 C1.13 -33.83, 0.07 -7.53, 0 0" stroke="#000000" stroke-width="1" fill="none"></path></g></g><g stroke-linecap="round"><g stroke-opacity="0.6" fill-opacity="0.6" transform="translate(644.4376490160985 319.99100082827255) rotate(0 -11.468384696380134 -24.02385273403081)" fill-rule="evenodd"><path d="M0 0 L-11.72 0.03 L-18.37 -1.71 L-24.58 -4.49 L-29.27 -8.2 L-32.71 -12.86 L-34.93 -18.36 L-35.6 -25 L-35.06 -34.23 L-33.88 -38.93 L-31.42 -42.59 L-27.09 -45.29 L-21.31 -47.36 L-15.09 -48.37 L-9.46 -47.87 L-4.32 -45.4 L0.75 -41.31 L8.64 -31.43 L12.26 -20.4 L12.11 -10.16 L9.9 -6.6 L0 0" stroke="none" stroke-width="0" fill="#ffffff" fill-rule="evenodd"></path><path d="M0 0 C-1.95 0, -7.63 0.78, -11.72 0.03 C-15.82 -0.72, -21.08 -2.34, -24.58 -4.49 C-28.08 -6.64, -30.88 -9.44, -32.71 -12.86 C-34.55 -16.28, -35.81 -20.05, -35.6 -25 C-35.38 -29.96, -35.78 -38.78, -31.42 -42.59 C-27.06 -46.4, -16.13 -49.73, -9.46 -47.87 C-2.78 -46.01, 5.04 -37.71, 8.64 -31.43 C12.23 -25.14, 13.55 -15.4, 12.11 -10.16 C10.67 -4.92, 2.02 -1.69, 0 0 M0 0 C-1.95 0, -7.63 0.78, -11.72 0.03 C-15.82 -0.72, -21.08 -2.34, -24.58 -4.49 C-28.08 -6.64, -30.88 -9.44, -32.71 -12.86 C-34.55 -16.28, -35.81 -20.05, -35.6 -25 C-35.38 -29.96, -35.78 -38.78, -31.42 -42.59 C-27.06 -46.4, -16.13 -49.73, -9.46 -47.87 C-2.78 -46.01, 5.04 -37.71, 8.64 -31.43 C12.23 -25.14, 13.55 -15.4, 12.11 -10.16 C10.67 -4.92, 2.02 -1.69, 0 0" stroke="#000000" stroke-width="1" fill="none"></path></g></g><g stroke-linecap="round"><g transform="translate(682.4785593374932 196.24616095306294) rotate(422.26923488609646 -5.113884702647539 -0.44296579595996377)" fill-rule="evenodd"><path d="M0 0 L-7.36 4.52 L-10.22 -1.1 L-9.24 -4.11 L-5.55 -5.57 L-1.78 -2.62 L0 0" stroke="none" stroke-width="0" fill="#bcdec2" fill-rule="evenodd"></path><path d="M0 0 C-1.02 0.67, -4.87 3.3, -6.09 4.05 C-7.32 4.8, -6.9 4.86, -7.36 4.52 C-7.82 4.17, -8.38 2.9, -8.86 1.97 C-9.34 1.03, -10.16 -0.09, -10.22 -1.1 C-10.28 -2.11, -10.02 -3.37, -9.24 -4.11 C-8.46 -4.86, -6.79 -5.81, -5.55 -5.57 C-4.3 -5.32, -2.71 -3.55, -1.78 -2.62 C-0.86 -1.7, -0.3 -0.44, 0 0 M0 0 C-1.02 0.67, -4.87 3.3, -6.09 4.05 C-7.32 4.8, -6.9 4.86, -7.36 4.52 C-7.82 4.17, -8.38 2.9, -8.86 1.97 C-9.34 1.03, -10.16 -0.09, -10.22 -1.1 C-10.28 -2.11, -10.02 -3.37, -9.24 -4.11 C-8.46 -4.86, -6.79 -5.81, -5.55 -5.57 C-4.3 -5.32, -2.71 -3.55, -1.78 -2.62 C-0.86 -1.7, -0.3 -0.44, 0 0" stroke="#bcdec2" stroke-width="1" fill="none"></path></g></g><g stroke-linecap="round"><g transform="translate(677.2033278607572 197.54767912100135) rotate(408.7911702453978 -1.3969168105368581 -1.2417038315883246)" fill-rule="evenodd"><path d="" stroke="none" stroke-width="0" fill="#bcdec2" fill-rule="evenodd"></path><path d="M0 0 C-0.11 -0.27, -0.21 -1.19, -0.67 -1.6 C-1.14 -2.02, -2.44 -2.34, -2.79 -2.48 M0 0 C-0.11 -0.27, -0.21 -1.19, -0.67 -1.6 C-1.14 -2.02, -2.44 -2.34, -2.79 -2.48" stroke="#000000" stroke-width="1" fill="none"></path></g></g><g stroke-linecap="round"><g transform="translate(677.6034201596603 198.84892743757524) rotate(408.7911702453978 -0.13120801776891255 -2.2505155569402007)" fill-rule="evenodd"><path d="" stroke="none" stroke-width="0" fill="#bcdec2" fill-rule="evenodd"></path><path d="M0 0 C-0.04 -0.32, -0.23 -1.16, -0.26 -1.91 C-0.28 -2.66, -0.17 -4.07, -0.16 -4.5 M0 0 C-0.04 -0.32, -0.23 -1.16, -0.26 -1.91 C-0.28 -2.66, -0.17 -4.07, -0.16 -4.5" stroke="#000000" stroke-width="1" fill="none"></path></g></g><g stroke-linecap="round"><g transform="translate(675.215812215578 201.07597743012775) rotate(422.26923488609646 2.186927964752101 -5.230164364134964)"><path d="M0 0 C-0.28 -0.45, -1.18 -1.74, -1.68 -2.73 C-2.18 -3.72, -2.94 -4.91, -2.99 -5.95 C-3.05 -6.98, -2.79 -8.21, -2.01 -8.96 C-1.23 -9.7, 0.38 -10.69, 1.68 -10.41 C2.99 -10.13, 4.87 -8.2, 5.82 -7.27 C6.77 -6.34, 7.11 -5.23, 7.37 -4.82 M0 0 C-0.28 -0.45, -1.18 -1.74, -1.68 -2.73 C-2.18 -3.72, -2.94 -4.91, -2.99 -5.95 C-3.05 -6.98, -2.79 -8.21, -2.01 -8.96 C-1.23 -9.7, 0.38 -10.69, 1.68 -10.41 C2.99 -10.13, 4.87 -8.2, 5.82 -7.27 C6.77 -6.34, 7.11 -5.23, 7.37 -4.82" stroke="#000000" stroke-width="1" fill="none"></path></g></g><g stroke-linecap="round"><g transform="translate(624.7876983125367 243.59415983107527) rotate(359.02968387063 6.734854538589715 -2.1275194231430987)" fill-rule="evenodd"><path d="M0 0 L0.25 -2.34 L2.66 -5.09 L6.86 -5.78 L10.39 -5.4 L12.93 -3.4 L13.42 -0.89 L11.78 1.05 L0.93 1.39 L0.04 0.18" stroke="none" stroke-width="0" fill="#ccbdac" fill-rule="evenodd"></path><path d="M0 0 C0.04 -0.39, -0.19 -1.5, 0.25 -2.34 C0.7 -3.19, 1.56 -4.52, 2.66 -5.09 C3.76 -5.67, 5.57 -5.73, 6.86 -5.78 C8.15 -5.83, 9.38 -5.79, 10.39 -5.4 C11.4 -5, 12.42 -4.15, 12.93 -3.4 C13.43 -2.64, 13.61 -1.63, 13.42 -0.89 C13.22 -0.15, 12.8 0.74, 11.78 1.05 C10.75 1.36, 8.67 0.88, 7.27 0.96 C5.88 1.03, 4.46 1.41, 3.4 1.48 C2.35 1.55, 1.5 1.6, 0.93 1.39 C0.37 1.17, 0.19 0.38, 0.04 0.18 M0 0 C0.04 -0.39, -0.19 -1.5, 0.25 -2.34 C0.7 -3.19, 1.56 -4.52, 2.66 -5.09 C3.76 -5.67, 5.57 -5.73, 6.86 -5.78 C8.15 -5.83, 9.38 -5.79, 10.39 -5.4 C11.4 -5, 12.42 -4.15, 12.93 -3.4 C13.43 -2.64, 13.61 -1.63, 13.42 -0.89 C13.22 -0.15, 12.8 0.74, 11.78 1.05 C10.75 1.36, 8.67 0.88, 7.27 0.96 C5.88 1.03, 4.46 1.41, 3.4 1.48 C2.35 1.55, 1.5 1.6, 0.93 1.39 C0.37 1.17, 0.19 0.38, 0.04 0.18" stroke="#000000" stroke-width="1" fill="none"></path></g></g><g stroke-linecap="round"><g transform="translate(631.6925438674615 244.81918336610966) rotate(359.02968387063 -2.8649419723506213 -2.980087063154315)" fill-rule="evenodd"><path d="M0 0 L-1.82 -1.01 L-1.88 -2.43 L0.69 -4.12 L-1.61 -6.23 L-4.04 -5.85 L-5.47 -4.65 L-6.21 -0.67 L-4.08 0.36 L0 0" stroke="none" stroke-width="0" fill="#958b7f" fill-rule="evenodd"></path><path d="M0 0 C-0.12 -0.05, -0.43 -0.13, -0.73 -0.29 C-1.04 -0.46, -1.63 -0.65, -1.82 -1.01 C-2.01 -1.36, -2.04 -2.06, -1.88 -2.43 C-1.72 -2.8, -1.3 -2.94, -0.87 -3.22 C-0.45 -3.5, 0.81 -3.62, 0.69 -4.12 C0.56 -4.62, -0.82 -5.94, -1.61 -6.23 C-2.4 -6.52, -3.4 -6.11, -4.04 -5.85 C-4.69 -5.59, -5.12 -5.02, -5.47 -4.65 C-5.83 -4.27, -6.01 -4.01, -6.17 -3.61 C-6.32 -3.21, -6.42 -2.73, -6.42 -2.24 C-6.43 -1.75, -6.41 -1.05, -6.21 -0.67 C-6 -0.28, -5.56 -0.08, -5.2 0.09 C-4.85 0.26, -4.59 0.39, -4.08 0.36 C-3.58 0.34, -2.85 0.01, -2.17 -0.05 C-1.49 -0.11, -0.36 -0.01, 0 0 M0 0 C-0.12 -0.05, -0.43 -0.13, -0.73 -0.29 C-1.04 -0.46, -1.63 -0.65, -1.82 -1.01 C-2.01 -1.36, -2.04 -2.06, -1.88 -2.43 C-1.72 -2.8, -1.3 -2.94, -0.87 -3.22 C-0.45 -3.5, 0.81 -3.62, 0.69 -4.12 C0.56 -4.62, -0.82 -5.94, -1.61 -6.23 C-2.4 -6.52, -3.4 -6.11, -4.04 -5.85 C-4.69 -5.59, -5.12 -5.02, -5.47 -4.65 C-5.83 -4.27, -6.01 -4.01, -6.17 -3.61 C-6.32 -3.21, -6.42 -2.73, -6.42 -2.24 C-6.43 -1.75, -6.41 -1.05, -6.21 -0.67 C-6 -0.28, -5.56 -0.08, -5.2 0.09 C-4.85 0.26, -4.59 0.39, -4.08 0.36 C-3.58 0.34, -2.85 0.01, -2.17 -0.05 C-1.49 -0.11, -0.36 -0.01, 0 0" stroke="#958b7f" stroke-width="1" fill="none"></path></g></g><g stroke-linecap="round"><g transform="translate(624.7458614497605 243.63223023662334) rotate(359.02968387063 6.675611498686848 -2.039151383540741)"><path d="M0 0 C0.01 -0.38, -0.36 -1.44, 0.07 -2.26 C0.5 -3.07, 1.48 -4.31, 2.58 -4.88 C3.68 -5.46, 5.41 -5.62, 6.68 -5.69 C7.95 -5.76, 9.18 -5.65, 10.21 -5.31 C11.24 -4.97, 12.29 -4.33, 12.83 -3.65 C13.38 -2.98, 13.55 -2.01, 13.47 -1.24 C13.4 -0.48, 12.82 0.53, 12.39 0.96 C11.96 1.39, 11.78 1.35, 10.9 1.35 C10.01 1.36, 8.44 0.94, 7.09 0.99 C5.75 1.03, 3.86 1.59, 2.83 1.63 C1.8 1.67, 1.38 1.53, 0.9 1.23 C0.42 0.93, 0.1 0.06, -0.06 -0.18 M0 0 C0.01 -0.38, -0.36 -1.44, 0.07 -2.26 C0.5 -3.07, 1.48 -4.31, 2.58 -4.88 C3.68 -5.46, 5.41 -5.62, 6.68 -5.69 C7.95 -5.76, 9.18 -5.65, 10.21 -5.31 C11.24 -4.97, 12.29 -4.33, 12.83 -3.65 C13.38 -2.98, 13.55 -2.01, 13.47 -1.24 C13.4 -0.48, 12.82 0.53, 12.39 0.96 C11.96 1.39, 11.78 1.35, 10.9 1.35 C10.01 1.36, 8.44 0.94, 7.09 0.99 C5.75 1.03, 3.86 1.59, 2.83 1.63 C1.8 1.67, 1.38 1.53, 0.9 1.23 C0.42 0.93, 0.1 0.06, -0.06 -0.18" stroke="#000000" stroke-width="1" fill="none"></path></g></g><g stroke-linecap="round"><g transform="translate(626.4588100709994 237.302578405362) rotate(359.02968387063 4.740794195594987 -0.024533398602471834)" fill-rule="evenodd"><path d="M0 0 L0.11 -1.42 L1.76 -2.53 L7.56 -2.86 L9.45 -1.66 L8.11 1.75 L4.9 2.94 L2.18 2.19 L0 0" stroke="none" stroke-width="0" fill="#595755" fill-rule="evenodd"></path><path d="M0 0 C0.02 -0.24, -0.18 -1, 0.11 -1.42 C0.4 -1.84, 1 -2.27, 1.76 -2.53 C2.53 -2.78, 3.74 -2.88, 4.7 -2.93 C5.67 -2.99, 6.77 -3.07, 7.56 -2.86 C8.35 -2.64, 9.19 -2.22, 9.45 -1.66 C9.7 -1.1, 9.33 -0.07, 9.1 0.5 C8.88 1.07, 8.5 1.41, 8.11 1.75 C7.71 2.08, 7.26 2.32, 6.73 2.52 C6.2 2.72, 5.66 2.99, 4.9 2.94 C4.14 2.88, 2.91 2.5, 2.18 2.19 C1.45 1.88, 0.88 1.44, 0.52 1.08 C0.15 0.71, 0.09 0.18, 0 0 M0 0 C0.02 -0.24, -0.18 -1, 0.11 -1.42 C0.4 -1.84, 1 -2.27, 1.76 -2.53 C2.53 -2.78, 3.74 -2.88, 4.7 -2.93 C5.67 -2.99, 6.77 -3.07, 7.56 -2.86 C8.35 -2.64, 9.19 -2.22, 9.45 -1.66 C9.7 -1.1, 9.33 -0.07, 9.1 0.5 C8.88 1.07, 8.5 1.41, 8.11 1.75 C7.71 2.08, 7.26 2.32, 6.73 2.52 C6.2 2.72, 5.66 2.99, 4.9 2.94 C4.14 2.88, 2.91 2.5, 2.18 2.19 C1.45 1.88, 0.88 1.44, 0.52 1.08 C0.15 0.71, 0.09 0.18, 0 0" stroke="#000000" stroke-width="1" fill="none"></path></g></g><g stroke-linecap="round"><g transform="translate(633.5283629138505 239.77324484232656) rotate(359.02968387063 -3.4833170689181543 -2.515161216990464)" fill-rule="evenodd"><path d="M0 0 L-1.7 0.06 L-4.09 -1.87 L-4.19 -3.13 L-1.78 -5.32 L-6.13 -4.53 L-6.82 -3.49 L-6.91 -2.16 L-4.42 -0.03 L0 0" stroke="none" stroke-width="0" fill="#454342" fill-rule="evenodd"></path><path d="M0 0 C-0.28 0.01, -1.18 0.18, -1.7 0.06 C-2.22 -0.07, -2.71 -0.42, -3.1 -0.74 C-3.5 -1.06, -3.91 -1.47, -4.09 -1.87 C-4.27 -2.27, -4.32 -2.71, -4.19 -3.13 C-4.07 -3.55, -3.74 -4.01, -3.34 -4.38 C-2.94 -4.74, -1.58 -5.21, -1.78 -5.32 C-1.99 -5.43, -3.85 -5.19, -4.57 -5.05 C-5.3 -4.92, -5.76 -4.79, -6.13 -4.53 C-6.51 -4.27, -6.69 -3.89, -6.82 -3.49 C-6.95 -3.1, -7.02 -2.53, -6.91 -2.16 C-6.8 -1.79, -6.41 -1.55, -6.15 -1.28 C-5.9 -1.01, -5.65 -0.76, -5.36 -0.56 C-5.07 -0.35, -4.8 -0.17, -4.42 -0.03 C-4.03 0.12, -3.8 0.31, -3.06 0.32 C-2.33 0.32, -0.51 0.05, 0 0 M0 0 C-0.28 0.01, -1.18 0.18, -1.7 0.06 C-2.22 -0.07, -2.71 -0.42, -3.1 -0.74 C-3.5 -1.06, -3.91 -1.47, -4.09 -1.87 C-4.27 -2.27, -4.32 -2.71, -4.19 -3.13 C-4.07 -3.55, -3.74 -4.01, -3.34 -4.38 C-2.94 -4.74, -1.58 -5.21, -1.78 -5.32 C-1.99 -5.43, -3.85 -5.19, -4.57 -5.05 C-5.3 -4.92, -5.76 -4.79, -6.13 -4.53 C-6.51 -4.27, -6.69 -3.89, -6.82 -3.49 C-6.95 -3.1, -7.02 -2.53, -6.91 -2.16 C-6.8 -1.79, -6.41 -1.55, -6.15 -1.28 C-5.9 -1.01, -5.65 -0.76, -5.36 -0.56 C-5.07 -0.35, -4.8 -0.17, -4.42 -0.03 C-4.03 0.12, -3.8 0.31, -3.06 0.32 C-2.33 0.32, -0.51 0.05, 0 0" stroke="#454342" stroke-width="1" fill="none"></path></g></g><g stroke-linecap="round"><g transform="translate(626.3129841106559 237.26809424058473) rotate(359.02968387063 4.816165552336997 0.09235948481628498)"><path d="M0 0 C0.02 -0.24, -0.18 -1, 0.11 -1.42 C0.39 -1.84, 0.97 -2.27, 1.71 -2.53 C2.45 -2.78, 3.88 -2.87, 4.55 -2.93 C5.21 -3, 5.3 -2.92, 5.71 -2.92 C6.11 -2.92, 6.51 -2.98, 6.97 -2.93 C7.42 -2.89, 8.02 -2.88, 8.46 -2.65 C8.9 -2.42, 9.47 -2.01, 9.63 -1.57 C9.79 -1.13, 9.55 -0.48, 9.43 -0.01 C9.3 0.45, 9.28 0.78, 8.89 1.21 C8.49 1.65, 7.75 2.27, 7.08 2.59 C6.42 2.92, 5.73 3.19, 4.9 3.14 C4.07 3.09, 2.81 2.64, 2.1 2.29 C1.38 1.94, 0.97 1.4, 0.62 1.02 C0.27 0.64, 0.1 0.17, 0 0 M0 0 C0.02 -0.24, -0.18 -1, 0.11 -1.42 C0.39 -1.84, 0.97 -2.27, 1.71 -2.53 C2.45 -2.78, 3.88 -2.87, 4.55 -2.93 C5.21 -3, 5.3 -2.92, 5.71 -2.92 C6.11 -2.92, 6.51 -2.98, 6.97 -2.93 C7.42 -2.89, 8.02 -2.88, 8.46 -2.65 C8.9 -2.42, 9.47 -2.01, 9.63 -1.57 C9.79 -1.13, 9.55 -0.48, 9.43 -0.01 C9.3 0.45, 9.28 0.78, 8.89 1.21 C8.49 1.65, 7.75 2.27, 7.08 2.59 C6.42 2.92, 5.73 3.19, 4.9 3.14 C4.07 3.09, 2.81 2.64, 2.1 2.29 C1.38 1.94, 0.97 1.4, 0.62 1.02 C0.27 0.64, 0.1 0.17, 0 0" stroke="#000000" stroke-width="1" fill="none"></path></g></g><g stroke-linecap="round"><g transform="translate(633.1751461743845 235.82392231044224) rotate(359.02968387063 0.44544156195571816 0.8183882453342619)" fill-rule="evenodd"><path d="" stroke="none" stroke-width="0" fill="#454342" fill-rule="evenodd"></path><path d="M0 0 C0.15 0.12, 0.78 0.46, 0.87 0.73 C0.97 1, 0.62 1.49, 0.57 1.64 M0 0 C0.15 0.12, 0.78 0.46, 0.87 0.73 C0.97 1, 0.62 1.49, 0.57 1.64" stroke="#000000" stroke-width="1" fill="none"></path></g></g><g stroke-linecap="round"><g transform="translate(627.7885179155542 245.3818765455817) rotate(359.9298638803776 0.03056332902382053 1.344786477047876)"><path d="M0 0 C0.01 0.45, 0.05 2.24, 0.06 2.69 M0 0 C0.01 0.45, 0.05 2.24, 0.06 2.69" stroke="#000000" stroke-width="1" fill="none"></path></g></g><g stroke-linecap="round"><g transform="translate(627.7558239693672 247.69013416077712) rotate(359.9298638803776 3.2368575619857864 -0.5266389357945229)" fill-rule="evenodd"><path d="M0 0 L0.52 1.66 L4.71 1.81 L6.4 1.01 L6.53 -2.76 L-0.03 -2.25 L0 0" stroke="none" stroke-width="0" fill="#ffffff" fill-rule="evenodd"></path><path d="M0 0 C0.09 0.28, 0.1 1.33, 0.52 1.66 C0.95 1.99, 1.85 1.97, 2.55 1.99 C3.25 2.02, 4.07 1.98, 4.71 1.81 C5.35 1.65, 6.06 1.46, 6.4 1.01 C6.73 0.56, 6.69 -0.25, 6.71 -0.88 C6.73 -1.51, 6.75 -2.4, 6.53 -2.76 C6.3 -3.12, 5.94 -3.03, 5.37 -3.05 C4.79 -3.07, 3.97 -3.02, 3.07 -2.88 C2.17 -2.75, 0.48 -2.73, -0.03 -2.25 C-0.54 -1.77, 0 -0.38, 0 0 M0 0 C0.09 0.28, 0.1 1.33, 0.52 1.66 C0.95 1.99, 1.85 1.97, 2.55 1.99 C3.25 2.02, 4.07 1.98, 4.71 1.81 C5.35 1.65, 6.06 1.46, 6.4 1.01 C6.73 0.56, 6.69 -0.25, 6.71 -0.88 C6.73 -1.51, 6.75 -2.4, 6.53 -2.76 C6.3 -3.12, 5.94 -3.03, 5.37 -3.05 C4.79 -3.07, 3.97 -3.02, 3.07 -2.88 C2.17 -2.75, 0.48 -2.73, -0.03 -2.25 C-0.54 -1.77, 0 -0.38, 0 0" stroke="#000000" stroke-width="1" fill="none"></path></g></g><g stroke-linecap="round"><g transform="translate(630.8549890314538 244.8895692229869) rotate(359.9298638803776 0.023912705490133135 2.2922496767861276)" fill-rule="evenodd"><path d="" stroke="none" stroke-width="0" fill="#ffffff" fill-rule="evenodd"></path><path d="M0 0 C-0.01 0.34, -0.09 1.29, -0.07 2.05 C-0.05 2.82, 0.09 4.16, 0.12 4.58 M0 0 C-0.01 0.34, -0.09 1.29, -0.07 2.05 C-0.05 2.82, 0.09 4.16, 0.12 4.58" stroke="#000000" stroke-width="1" fill="none"></path></g></g><g stroke-linecap="round" transform="translate(601.1460576053747 199.28324891089164) rotate(0 16.32859392483006 16.48946677138011)"><path d="M32.66 16.49 C32.66 17.44, 32.57 18.41, 32.41 19.35 C32.24 20.29, 32 21.23, 31.67 22.13 C31.35 23.03, 30.94 23.91, 30.47 24.73 C30 25.56, 29.44 26.36, 28.84 27.09 C28.23 27.82, 27.55 28.51, 26.82 29.12 C26.1 29.73, 25.31 30.29, 24.49 30.77 C23.67 31.25, 22.8 31.66, 21.91 31.98 C21.03 32.31, 20.09 32.56, 19.16 32.73 C18.23 32.89, 17.27 32.98, 16.33 32.98 C15.38 32.98, 14.42 32.89, 13.49 32.73 C12.56 32.56, 11.63 32.31, 10.74 31.98 C9.86 31.66, 8.98 31.25, 8.16 30.77 C7.35 30.29, 6.56 29.73, 5.83 29.12 C5.11 28.51, 4.43 27.82, 3.82 27.09 C3.21 26.36, 2.66 25.56, 2.19 24.73 C1.72 23.91, 1.31 23.03, 0.98 22.13 C0.66 21.23, 0.41 20.29, 0.25 19.35 C0.08 18.41, 0 17.44, 0 16.49 C0 15.54, 0.08 14.57, 0.25 13.63 C0.41 12.69, 0.66 11.75, 0.98 10.85 C1.31 9.95, 1.72 9.07, 2.19 8.24 C2.66 7.42, 3.21 6.62, 3.82 5.89 C4.43 5.16, 5.11 4.47, 5.83 3.86 C6.56 3.24, 7.35 2.69, 8.16 2.21 C8.98 1.73, 9.86 1.32, 10.74 0.99 C11.63 0.67, 12.56 0.42, 13.49 0.25 C14.42 0.08, 15.38 0, 16.33 0 C17.27 0, 18.23 0.08, 19.16 0.25 C20.09 0.42, 21.03 0.67, 21.91 0.99 C22.8 1.32, 23.67 1.73, 24.49 2.21 C25.31 2.69, 26.1 3.24, 26.82 3.86 C27.55 4.47, 28.23 5.16, 28.84 5.89 C29.44 6.62, 30 7.42, 30.47 8.24 C30.94 9.07, 31.35 9.95, 31.67 10.85 C32 11.75, 32.24 12.69, 32.41 13.63 C32.57 14.57, 32.62 16.01, 32.66 16.49 C32.7 16.97, 32.7 16.01, 32.66 16.49" stroke="none" stroke-width="0" fill="#ffffff"></path><path d="M32.66 16.49 C32.66 17.44, 32.57 18.41, 32.41 19.35 C32.24 20.29, 32 21.23, 31.67 22.13 C31.35 23.03, 30.94 23.91, 30.47 24.73 C30 25.56, 29.44 26.36, 28.84 27.09 C28.23 27.82, 27.55 28.51, 26.82 29.12 C26.1 29.73, 25.31 30.29, 24.49 30.77 C23.67 31.25, 22.8 31.66, 21.91 31.98 C21.03 32.31, 20.09 32.56, 19.16 32.73 C18.23 32.89, 17.27 32.98, 16.33 32.98 C15.38 32.98, 14.42 32.89, 13.49 32.73 C12.56 32.56, 11.63 32.31, 10.74 31.98 C9.86 31.66, 8.98 31.25, 8.16 30.77 C7.35 30.29, 6.56 29.73, 5.83 29.12 C5.11 28.51, 4.43 27.82, 3.82 27.09 C3.21 26.36, 2.66 25.56, 2.19 24.73 C1.72 23.91, 1.31 23.03, 0.98 22.13 C0.66 21.23, 0.41 20.29, 0.25 19.35 C0.08 18.41, 0 17.44, 0 16.49 C0 15.54, 0.08 14.57, 0.25 13.63 C0.41 12.69, 0.66 11.75, 0.98 10.85 C1.31 9.95, 1.72 9.07, 2.19 8.24 C2.66 7.42, 3.21 6.62, 3.82 5.89 C4.43 5.16, 5.11 4.47, 5.83 3.86 C6.56 3.24, 7.35 2.69, 8.16 2.21 C8.98 1.73, 9.86 1.32, 10.74 0.99 C11.63 0.67, 12.56 0.42, 13.49 0.25 C14.42 0.08, 15.38 0, 16.33 0 C17.27 0, 18.23 0.08, 19.16 0.25 C20.09 0.42, 21.03 0.67, 21.91 0.99 C22.8 1.32, 23.67 1.73, 24.49 2.21 C25.31 2.69, 26.1 3.24, 26.82 3.86 C27.55 4.47, 28.23 5.16, 28.84 5.89 C29.44 6.62, 30 7.42, 30.47 8.24 C30.94 9.07, 31.35 9.95, 31.67 10.85 C32 11.75, 32.24 12.69, 32.41 13.63 C32.57 14.57, 32.62 16.01, 32.66 16.49 C32.7 16.97, 32.7 16.01, 32.66 16.49" stroke="#000000" stroke-width="1" fill="none"></path></g><g stroke-linecap="round"><g stroke-opacity="0.1" fill-opacity="0.1" transform="translate(619.2483422834439 231.818802050059) rotate(0 -8.18991529030285 -16.030138339894478)" fill-rule="evenodd"><path d="M0 0 L-6.88 -4.03 L-12.16 -10.41 L-13.31 -18.83 L-10.58 -25.63 L-4.49 -30.54 L0.72 -32.36 L-8.32 -30.89 L-13.63 -26.23 L-16.21 -22.21 L-17.17 -16.9 L-16.37 -10.78 L-13.95 -5.47 L-10.25 -2.42 L-4.14 0.16 L0 0" stroke="none" stroke-width="0" fill="#000000" fill-rule="evenodd"></path><path d="M0 0 C-1.15 -0.67, -4.85 -2.29, -6.88 -4.03 C-8.9 -5.76, -11.09 -7.94, -12.16 -10.41 C-13.24 -12.87, -13.58 -16.29, -13.31 -18.83 C-13.05 -21.36, -12.05 -23.68, -10.58 -25.63 C-9.11 -27.58, -6.37 -29.42, -4.49 -30.54 C-2.6 -31.66, 1.36 -32.3, 0.72 -32.36 C0.09 -32.42, -5.93 -31.91, -8.32 -30.89 C-10.72 -29.87, -12.32 -27.67, -13.63 -26.23 C-14.95 -24.78, -15.62 -23.76, -16.21 -22.21 C-16.8 -20.65, -17.14 -18.8, -17.17 -16.9 C-17.2 -14.99, -16.9 -12.69, -16.37 -10.78 C-15.83 -8.88, -14.97 -6.87, -13.95 -5.47 C-12.94 -4.08, -11.89 -3.36, -10.25 -2.42 C-8.62 -1.48, -5.85 -0.25, -4.14 0.16 C-2.43 0.56, -0.69 0.03, 0 0 M0 0 C-1.15 -0.67, -4.85 -2.29, -6.88 -4.03 C-8.9 -5.76, -11.09 -7.94, -12.16 -10.41 C-13.24 -12.87, -13.58 -16.29, -13.31 -18.83 C-13.05 -21.36, -12.05 -23.68, -10.58 -25.63 C-9.11 -27.58, -6.37 -29.42, -4.49 -30.54 C-2.6 -31.66, 1.36 -32.3, 0.72 -32.36 C0.09 -32.42, -5.93 -31.91, -8.32 -30.89 C-10.72 -29.87, -12.32 -27.67, -13.63 -26.23 C-14.95 -24.78, -15.62 -23.76, -16.21 -22.21 C-16.8 -20.65, -17.14 -18.8, -17.17 -16.9 C-17.2 -14.99, -16.9 -12.69, -16.37 -10.78 C-15.83 -8.88, -14.97 -6.87, -13.95 -5.47 C-12.94 -4.08, -11.89 -3.36, -10.25 -2.42 C-8.62 -1.48, -5.85 -0.25, -4.14 0.16 C-2.43 0.56, -0.69 0.03, 0 0" stroke="#000000" stroke-width="1" fill="none"></path></g></g><g stroke-linecap="round" transform="translate(601.2722837063045 199.15702280996186) rotate(0 16.32859392483006 16.48946677138011)"><path d="M32.66 16.49 C32.66 17.44, 32.57 18.41, 32.41 19.35 C32.24 20.29, 32 21.23, 31.67 22.13 C31.35 23.03, 30.94 23.91, 30.47 24.73 C30 25.56, 29.44 26.36, 28.84 27.09 C28.23 27.82, 27.55 28.51, 26.82 29.12 C26.1 29.73, 25.31 30.29, 24.49 30.77 C23.67 31.25, 22.8 31.66, 21.91 31.98 C21.03 32.31, 20.09 32.56, 19.16 32.73 C18.23 32.89, 17.27 32.98, 16.33 32.98 C15.38 32.98, 14.42 32.89, 13.49 32.73 C12.56 32.56, 11.63 32.31, 10.74 31.98 C9.86 31.66, 8.98 31.25, 8.16 30.77 C7.35 30.29, 6.56 29.73, 5.83 29.12 C5.11 28.51, 4.43 27.82, 3.82 27.09 C3.21 26.36, 2.66 25.56, 2.19 24.73 C1.72 23.91, 1.31 23.03, 0.98 22.13 C0.66 21.23, 0.41 20.29, 0.25 19.35 C0.08 18.41, 0 17.44, 0 16.49 C0 15.54, 0.08 14.57, 0.25 13.63 C0.41 12.69, 0.66 11.75, 0.98 10.85 C1.31 9.95, 1.72 9.07, 2.19 8.24 C2.66 7.42, 3.21 6.62, 3.82 5.89 C4.43 5.16, 5.11 4.47, 5.83 3.86 C6.56 3.24, 7.35 2.69, 8.16 2.21 C8.98 1.73, 9.86 1.32, 10.74 0.99 C11.63 0.67, 12.56 0.42, 13.49 0.25 C14.42 0.08, 15.38 0, 16.33 0 C17.27 0, 18.23 0.08, 19.16 0.25 C20.09 0.42, 21.03 0.67, 21.91 0.99 C22.8 1.32, 23.67 1.73, 24.49 2.21 C25.31 2.69, 26.1 3.24, 26.82 3.86 C27.55 4.47, 28.23 5.16, 28.84 5.89 C29.44 6.62, 30 7.42, 30.47 8.24 C30.94 9.07, 31.35 9.95, 31.67 10.85 C32 11.75, 32.24 12.69, 32.41 13.63 C32.57 14.57, 32.62 16.01, 32.66 16.49 C32.7 16.97, 32.7 16.01, 32.66 16.49" stroke="#000000" stroke-width="1" fill="none"></path></g><g stroke-linecap="round" transform="translate(608.5252124529355 215.73049789657892) rotate(0 3.2978933542760274 3.137020507725964)"><path d="M6.6 3.14 C6.6 3.32, 6.58 3.5, 6.55 3.68 C6.51 3.86, 6.46 4.04, 6.4 4.21 C6.33 4.38, 6.25 4.55, 6.15 4.71 C6.06 4.86, 5.95 5.01, 5.82 5.15 C5.7 5.29, 5.56 5.42, 5.42 5.54 C5.27 5.66, 5.11 5.76, 4.95 5.85 C4.78 5.94, 4.61 6.02, 4.43 6.08 C4.25 6.15, 4.06 6.19, 3.87 6.23 C3.68 6.26, 3.49 6.27, 3.3 6.27 C3.11 6.27, 2.91 6.26, 2.73 6.23 C2.54 6.19, 2.35 6.15, 2.17 6.08 C1.99 6.02, 1.81 5.94, 1.65 5.85 C1.48 5.76, 1.32 5.66, 1.18 5.54 C1.03 5.42, 0.89 5.29, 0.77 5.15 C0.65 5.01, 0.54 4.86, 0.44 4.71 C0.35 4.55, 0.26 4.38, 0.2 4.21 C0.13 4.04, 0.08 3.86, 0.05 3.68 C0.02 3.5, 0 3.32, 0 3.14 C0 2.96, 0.02 2.77, 0.05 2.59 C0.08 2.41, 0.13 2.23, 0.2 2.06 C0.26 1.89, 0.35 1.73, 0.44 1.57 C0.54 1.41, 0.65 1.26, 0.77 1.12 C0.89 0.98, 1.03 0.85, 1.18 0.73 C1.32 0.62, 1.48 0.51, 1.65 0.42 C1.81 0.33, 1.99 0.25, 2.17 0.19 C2.35 0.13, 2.54 0.08, 2.73 0.05 C2.91 0.02, 3.11 0, 3.3 0 C3.49 0, 3.68 0.02, 3.87 0.05 C4.06 0.08, 4.25 0.13, 4.43 0.19 C4.61 0.25, 4.78 0.33, 4.95 0.42 C5.11 0.51, 5.27 0.62, 5.42 0.73 C5.56 0.85, 5.7 0.98, 5.82 1.12 C5.95 1.26, 6.06 1.41, 6.15 1.57 C6.25 1.73, 6.33 1.89, 6.4 2.06 C6.46 2.23, 6.51 2.41, 6.55 2.59 C6.58 2.77, 6.59 3.05, 6.6 3.14 C6.6 3.23, 6.6 3.05, 6.6 3.14" stroke="none" stroke-width="0" fill="#000000"></path><path d="M6.6 3.14 C6.6 3.32, 6.58 3.5, 6.55 3.68 C6.51 3.86, 6.46 4.04, 6.4 4.21 C6.33 4.38, 6.25 4.55, 6.15 4.71 C6.06 4.86, 5.95 5.01, 5.82 5.15 C5.7 5.29, 5.56 5.42, 5.42 5.54 C5.27 5.66, 5.11 5.76, 4.95 5.85 C4.78 5.94, 4.61 6.02, 4.43 6.08 C4.25 6.15, 4.06 6.19, 3.87 6.23 C3.68 6.26, 3.49 6.27, 3.3 6.27 C3.11 6.27, 2.91 6.26, 2.73 6.23 C2.54 6.19, 2.35 6.15, 2.17 6.08 C1.99 6.02, 1.81 5.94, 1.65 5.85 C1.48 5.76, 1.32 5.66, 1.18 5.54 C1.03 5.42, 0.89 5.29, 0.77 5.15 C0.65 5.01, 0.54 4.86, 0.44 4.71 C0.35 4.55, 0.26 4.38, 0.2 4.21 C0.13 4.04, 0.08 3.86, 0.05 3.68 C0.02 3.5, 0 3.32, 0 3.14 C0 2.96, 0.02 2.77, 0.05 2.59 C0.08 2.41, 0.13 2.23, 0.2 2.06 C0.26 1.89, 0.35 1.73, 0.44 1.57 C0.54 1.41, 0.65 1.26, 0.77 1.12 C0.89 0.98, 1.03 0.85, 1.18 0.73 C1.32 0.62, 1.48 0.51, 1.65 0.42 C1.81 0.33, 1.99 0.25, 2.17 0.19 C2.35 0.13, 2.54 0.08, 2.73 0.05 C2.91 0.02, 3.11 0, 3.3 0 C3.49 0, 3.68 0.02, 3.87 0.05 C4.06 0.08, 4.25 0.13, 4.43 0.19 C4.61 0.25, 4.78 0.33, 4.95 0.42 C5.11 0.51, 5.27 0.62, 5.42 0.73 C5.56 0.85, 5.7 0.98, 5.82 1.12 C5.95 1.26, 6.06 1.41, 6.15 1.57 C6.25 1.73, 6.33 1.89, 6.4 2.06 C6.46 2.23, 6.51 2.41, 6.55 2.59 C6.58 2.77, 6.59 3.05, 6.6 3.14 C6.6 3.23, 6.6 3.05, 6.6 3.14" stroke="#000000" stroke-width="1" fill="none"></path></g><g stroke-linecap="round" transform="translate(612.1271950017729 216.27232893219423) rotate(0 0.6434913862001963 0.8043642327502596)"><path d="M1.29 0.8 C1.29 0.85, 1.28 0.9, 1.28 0.94 C1.27 0.99, 1.26 1.04, 1.25 1.08 C1.24 1.12, 1.22 1.17, 1.2 1.21 C1.18 1.25, 1.16 1.29, 1.14 1.32 C1.11 1.36, 1.09 1.39, 1.06 1.42 C1.03 1.45, 1 1.48, 0.97 1.5 C0.93 1.52, 0.9 1.54, 0.86 1.56 C0.83 1.58, 0.79 1.59, 0.76 1.6 C0.72 1.6, 0.68 1.61, 0.64 1.61 C0.61 1.61, 0.57 1.6, 0.53 1.6 C0.5 1.59, 0.46 1.58, 0.42 1.56 C0.39 1.54, 0.35 1.52, 0.32 1.5 C0.29 1.48, 0.26 1.45, 0.23 1.42 C0.2 1.39, 0.17 1.36, 0.15 1.32 C0.13 1.29, 0.1 1.25, 0.09 1.21 C0.07 1.17, 0.05 1.12, 0.04 1.08 C0.03 1.04, 0.02 0.99, 0.01 0.94 C0 0.9, 0 0.85, 0 0.8 C0 0.76, 0 0.71, 0.01 0.66 C0.02 0.62, 0.03 0.57, 0.04 0.53 C0.05 0.49, 0.07 0.44, 0.09 0.4 C0.1 0.36, 0.13 0.32, 0.15 0.29 C0.17 0.25, 0.2 0.22, 0.23 0.19 C0.26 0.16, 0.29 0.13, 0.32 0.11 C0.35 0.08, 0.39 0.06, 0.42 0.05 C0.46 0.03, 0.5 0.02, 0.53 0.01 C0.57 0, 0.61 0, 0.64 0 C0.68 0, 0.72 0, 0.76 0.01 C0.79 0.02, 0.83 0.03, 0.86 0.05 C0.9 0.06, 0.93 0.08, 0.97 0.11 C1 0.13, 1.03 0.16, 1.06 0.19 C1.09 0.22, 1.11 0.25, 1.14 0.29 C1.16 0.32, 1.18 0.36, 1.2 0.4 C1.22 0.44, 1.24 0.49, 1.25 0.53 C1.26 0.57, 1.27 0.62, 1.28 0.66 C1.28 0.71, 1.29 0.78, 1.29 0.8 C1.29 0.83, 1.29 0.78, 1.29 0.8" stroke="none" stroke-width="0" fill="#ffffff"></path><path d="M1.29 0.8 C1.29 0.85, 1.28 0.9, 1.28 0.94 C1.27 0.99, 1.26 1.04, 1.25 1.08 C1.24 1.12, 1.22 1.17, 1.2 1.21 C1.18 1.25, 1.16 1.29, 1.14 1.32 C1.11 1.36, 1.09 1.39, 1.06 1.42 C1.03 1.45, 1 1.48, 0.97 1.5 C0.93 1.52, 0.9 1.54, 0.86 1.56 C0.83 1.58, 0.79 1.59, 0.76 1.6 C0.72 1.6, 0.68 1.61, 0.64 1.61 C0.61 1.61, 0.57 1.6, 0.53 1.6 C0.5 1.59, 0.46 1.58, 0.42 1.56 C0.39 1.54, 0.35 1.52, 0.32 1.5 C0.29 1.48, 0.26 1.45, 0.23 1.42 C0.2 1.39, 0.17 1.36, 0.15 1.32 C0.13 1.29, 0.1 1.25, 0.09 1.21 C0.07 1.17, 0.05 1.12, 0.04 1.08 C0.03 1.04, 0.02 0.99, 0.01 0.94 C0 0.9, 0 0.85, 0 0.8 C0 0.76, 0 0.71, 0.01 0.66 C0.02 0.62, 0.03 0.57, 0.04 0.53 C0.05 0.49, 0.07 0.44, 0.09 0.4 C0.1 0.36, 0.13 0.32, 0.15 0.29 C0.17 0.25, 0.2 0.22, 0.23 0.19 C0.26 0.16, 0.29 0.13, 0.32 0.11 C0.35 0.08, 0.39 0.06, 0.42 0.05 C0.46 0.03, 0.5 0.02, 0.53 0.01 C0.57 0, 0.61 0, 0.64 0 C0.68 0, 0.72 0, 0.76 0.01 C0.79 0.02, 0.83 0.03, 0.86 0.05 C0.9 0.06, 0.93 0.08, 0.97 0.11 C1 0.13, 1.03 0.16, 1.06 0.19 C1.09 0.22, 1.11 0.25, 1.14 0.29 C1.16 0.32, 1.18 0.36, 1.2 0.4 C1.22 0.44, 1.24 0.49, 1.25 0.53 C1.26 0.57, 1.27 0.62, 1.28 0.66 C1.28 0.71, 1.29 0.78, 1.29 0.8 C1.29 0.83, 1.29 0.78, 1.29 0.8" stroke="#ffffff" stroke-width="1" fill="none"></path></g><g stroke-linecap="round" transform="translate(639.0394032919585 199.27895042467867) rotate(0 18.456241026072725 18.638075913029127)"><path d="M36.91 18.64 C36.91 19.72, 36.82 20.81, 36.63 21.87 C36.45 22.94, 36.16 24, 35.8 25.01 C35.43 26.03, 34.97 27.02, 34.44 27.96 C33.91 28.89, 33.28 29.79, 32.59 30.62 C31.91 31.44, 31.14 32.22, 30.32 32.92 C29.5 33.61, 28.61 34.24, 27.68 34.78 C26.76 35.32, 25.77 35.78, 24.77 36.15 C23.76 36.52, 22.71 36.81, 21.66 36.99 C20.61 37.18, 19.52 37.28, 18.46 37.28 C17.39 37.28, 16.3 37.18, 15.25 36.99 C14.2 36.81, 13.15 36.52, 12.14 36.15 C11.14 35.78, 10.15 35.32, 9.23 34.78 C8.3 34.24, 7.41 33.61, 6.59 32.92 C5.77 32.22, 5 31.44, 4.32 30.62 C3.63 29.79, 3.01 28.89, 2.47 27.96 C1.94 27.02, 1.48 26.03, 1.11 25.01 C0.75 24, 0.47 22.94, 0.28 21.87 C0.09 20.81, 0 19.72, 0 18.64 C0 17.56, 0.09 16.46, 0.28 15.4 C0.47 14.34, 0.75 13.28, 1.11 12.26 C1.48 11.25, 1.94 10.25, 2.47 9.32 C3.01 8.38, 3.63 7.48, 4.32 6.66 C5 5.83, 5.77 5.05, 6.59 4.36 C7.41 3.67, 8.3 3.04, 9.23 2.5 C10.15 1.96, 11.14 1.49, 12.14 1.12 C13.15 0.76, 14.2 0.47, 15.25 0.28 C16.3 0.1, 17.39 0, 18.46 0 C19.52 0, 20.61 0.1, 21.66 0.28 C22.71 0.47, 23.76 0.76, 24.77 1.12 C25.77 1.49, 26.76 1.96, 27.68 2.5 C28.61 3.04, 29.5 3.67, 30.32 4.36 C31.14 5.05, 31.91 5.83, 32.59 6.66 C33.28 7.48, 33.91 8.38, 34.44 9.32 C34.97 10.25, 35.43 11.25, 35.8 12.26 C36.16 13.28, 36.45 14.34, 36.63 15.4 C36.82 16.46, 36.87 18.1, 36.91 18.64 C36.96 19.18, 36.96 18.1, 36.91 18.64" stroke="none" stroke-width="0" fill="#ffffff"></path><path d="M36.91 18.64 C36.91 19.72, 36.82 20.81, 36.63 21.87 C36.45 22.94, 36.16 24, 35.8 25.01 C35.43 26.03, 34.97 27.02, 34.44 27.96 C33.91 28.89, 33.28 29.79, 32.59 30.62 C31.91 31.44, 31.14 32.22, 30.32 32.92 C29.5 33.61, 28.61 34.24, 27.68 34.78 C26.76 35.32, 25.77 35.78, 24.77 36.15 C23.76 36.52, 22.71 36.81, 21.66 36.99 C20.61 37.18, 19.52 37.28, 18.46 37.28 C17.39 37.28, 16.3 37.18, 15.25 36.99 C14.2 36.81, 13.15 36.52, 12.14 36.15 C11.14 35.78, 10.15 35.32, 9.23 34.78 C8.3 34.24, 7.41 33.61, 6.59 32.92 C5.77 32.22, 5 31.44, 4.32 30.62 C3.63 29.79, 3.01 28.89, 2.47 27.96 C1.94 27.02, 1.48 26.03, 1.11 25.01 C0.75 24, 0.47 22.94, 0.28 21.87 C0.09 20.81, 0 19.72, 0 18.64 C0 17.56, 0.09 16.46, 0.28 15.4 C0.47 14.34, 0.75 13.28, 1.11 12.26 C1.48 11.25, 1.94 10.25, 2.47 9.32 C3.01 8.38, 3.63 7.48, 4.32 6.66 C5 5.83, 5.77 5.05, 6.59 4.36 C7.41 3.67, 8.3 3.04, 9.23 2.5 C10.15 1.96, 11.14 1.49, 12.14 1.12 C13.15 0.76, 14.2 0.47, 15.25 0.28 C16.3 0.1, 17.39 0, 18.46 0 C19.52 0, 20.61 0.1, 21.66 0.28 C22.71 0.47, 23.76 0.76, 24.77 1.12 C25.77 1.49, 26.76 1.96, 27.68 2.5 C28.61 3.04, 29.5 3.67, 30.32 4.36 C31.14 5.05, 31.91 5.83, 32.59 6.66 C33.28 7.48, 33.91 8.38, 34.44 9.32 C34.97 10.25, 35.43 11.25, 35.8 12.26 C36.16 13.28, 36.45 14.34, 36.63 15.4 C36.82 16.46, 36.87 18.1, 36.91 18.64 C36.96 19.18, 36.96 18.1, 36.91 18.64" stroke="#000000" stroke-width="1" fill="none"></path></g><g stroke-linecap="round"><g stroke-opacity="0.1" fill-opacity="0.1" transform="translate(665.5572417615646 234.53264157653177) rotate(0 -13.056803056264698 -15.936118574963018)" fill-rule="evenodd"><path d="M0 0 L-6.86 0.02 L-15.43 -3.11 L-18.69 -6.66 L-21.89 -12.16 L-21.67 -19.68 L-18.58 -27.37 L-11.7 -32.92 L-5.8 -34.98 L-16.03 -33.32 L-22.03 -28.05 L-24.94 -23.5 L-26.51 -17.42 L-26.96 -10.99 L-25.77 -6.38 L-23.67 -3.16 L-19.89 0.06 L-14.26 2.41 L-7.28 2.97 L0.88 0.08" stroke="none" stroke-width="0" fill="#000000" fill-rule="evenodd"></path><path d="M0 0 C-0.57 0.07, -2.28 0.4, -3.42 0.4 C-4.56 0.41, -5.55 0.27, -6.86 0.02 C-8.17 -0.22, -9.85 -0.55, -11.28 -1.07 C-12.71 -1.6, -14.2 -2.18, -15.43 -3.11 C-16.67 -4.05, -17.61 -5.15, -18.69 -6.66 C-19.76 -8.17, -21.39 -9.99, -21.89 -12.16 C-22.39 -14.33, -22.22 -17.15, -21.67 -19.68 C-21.12 -22.22, -20.24 -25.17, -18.58 -27.37 C-16.92 -29.58, -13.82 -31.65, -11.7 -32.92 C-9.57 -34.19, -5.08 -34.92, -5.8 -34.98 C-6.53 -35.05, -13.33 -34.48, -16.03 -33.32 C-18.74 -32.17, -20.55 -29.68, -22.03 -28.05 C-23.52 -26.41, -24.19 -25.27, -24.94 -23.5 C-25.69 -21.73, -26.17 -19.51, -26.51 -17.42 C-26.85 -15.34, -27.08 -12.83, -26.96 -10.99 C-26.84 -9.15, -26.32 -7.69, -25.77 -6.38 C-25.22 -5.07, -24.65 -4.23, -23.67 -3.16 C-22.69 -2.08, -21.46 -0.87, -19.89 0.06 C-18.32 0.99, -16.36 1.93, -14.26 2.41 C-12.15 2.9, -9.8 3.36, -7.28 2.97 C-4.76 2.58, -0.48 0.56, 0.88 0.08 M0 0 C-0.57 0.07, -2.28 0.4, -3.42 0.4 C-4.56 0.41, -5.55 0.27, -6.86 0.02 C-8.17 -0.22, -9.85 -0.55, -11.28 -1.07 C-12.71 -1.6, -14.2 -2.18, -15.43 -3.11 C-16.67 -4.05, -17.61 -5.15, -18.69 -6.66 C-19.76 -8.17, -21.39 -9.99, -21.89 -12.16 C-22.39 -14.33, -22.22 -17.15, -21.67 -19.68 C-21.12 -22.22, -20.24 -25.17, -18.58 -27.37 C-16.92 -29.58, -13.82 -31.65, -11.7 -32.92 C-9.57 -34.19, -5.08 -34.92, -5.8 -34.98 C-6.53 -35.05, -13.33 -34.48, -16.03 -33.32 C-18.74 -32.17, -20.55 -29.68, -22.03 -28.05 C-23.52 -26.41, -24.19 -25.27, -24.94 -23.5 C-25.69 -21.73, -26.17 -19.51, -26.51 -17.42 C-26.85 -15.34, -27.08 -12.83, -26.96 -10.99 C-26.84 -9.15, -26.32 -7.69, -25.77 -6.38 C-25.22 -5.07, -24.65 -4.23, -23.67 -3.16 C-22.69 -2.08, -21.46 -0.87, -19.89 0.06 C-18.32 0.99, -16.36 1.93, -14.26 2.41 C-12.15 2.9, -9.8 3.36, -7.28 2.97 C-4.76 2.58, -0.48 0.56, 0.88 0.08" stroke="#000000" stroke-width="1" fill="none"></path></g></g><g stroke-linecap="round" transform="translate(639.2598081761078 199.04575658405332) rotate(0 18.456241026072725 18.6380759130291)"><path d="M36.91 18.64 C36.91 19.72, 36.82 20.81, 36.63 21.87 C36.45 22.94, 36.16 24, 35.8 25.01 C35.43 26.03, 34.97 27.02, 34.44 27.96 C33.91 28.89, 33.28 29.79, 32.59 30.62 C31.91 31.44, 31.14 32.22, 30.32 32.92 C29.5 33.61, 28.61 34.24, 27.68 34.78 C26.76 35.32, 25.77 35.78, 24.77 36.15 C23.76 36.52, 22.71 36.81, 21.66 36.99 C20.61 37.18, 19.52 37.28, 18.46 37.28 C17.39 37.28, 16.3 37.18, 15.25 36.99 C14.2 36.81, 13.15 36.52, 12.14 36.15 C11.14 35.78, 10.15 35.32, 9.23 34.78 C8.3 34.24, 7.41 33.61, 6.59 32.92 C5.77 32.22, 5 31.44, 4.32 30.62 C3.63 29.79, 3.01 28.89, 2.47 27.96 C1.94 27.02, 1.48 26.03, 1.11 25.01 C0.75 24, 0.47 22.94, 0.28 21.87 C0.09 20.81, 0 19.72, 0 18.64 C0 17.56, 0.09 16.46, 0.28 15.4 C0.47 14.34, 0.75 13.28, 1.11 12.26 C1.48 11.25, 1.94 10.25, 2.47 9.32 C3.01 8.38, 3.63 7.48, 4.32 6.66 C5 5.83, 5.77 5.05, 6.59 4.36 C7.41 3.67, 8.3 3.04, 9.23 2.5 C10.15 1.96, 11.14 1.49, 12.14 1.12 C13.15 0.76, 14.2 0.47, 15.25 0.28 C16.3 0.1, 17.39 0, 18.46 0 C19.52 0, 20.61 0.1, 21.66 0.28 C22.71 0.47, 23.76 0.76, 24.77 1.12 C25.77 1.49, 26.76 1.96, 27.68 2.5 C28.61 3.04, 29.5 3.67, 30.32 4.36 C31.14 5.05, 31.91 5.83, 32.59 6.66 C33.28 7.48, 33.91 8.38, 34.44 9.32 C34.97 10.25, 35.43 11.25, 35.8 12.26 C36.16 13.28, 36.45 14.34, 36.63 15.4 C36.82 16.46, 36.87 18.1, 36.91 18.64 C36.96 19.18, 36.96 18.1, 36.91 18.64" stroke="#000000" stroke-width="1" fill="none"></path></g><g stroke-linecap="round" transform="translate(647.7036715197684 216.44473464263933) rotate(0 3.727615182605824 3.5457802956494504)"><path d="M7.46 3.55 C7.46 3.75, 7.44 3.96, 7.4 4.16 C7.36 4.36, 7.3 4.57, 7.23 4.76 C7.16 4.95, 7.06 5.14, 6.96 5.32 C6.85 5.5, 6.72 5.67, 6.58 5.82 C6.44 5.98, 6.29 6.13, 6.12 6.26 C5.96 6.39, 5.78 6.51, 5.59 6.62 C5.4 6.72, 5.21 6.81, 5 6.88 C4.8 6.95, 4.59 7, 4.37 7.04 C4.16 7.07, 3.94 7.09, 3.73 7.09 C3.51 7.09, 3.29 7.07, 3.08 7.04 C2.87 7, 2.66 6.95, 2.45 6.88 C2.25 6.81, 2.05 6.72, 1.86 6.62 C1.68 6.51, 1.5 6.39, 1.33 6.26 C1.17 6.13, 1.01 5.98, 0.87 5.82 C0.73 5.67, 0.61 5.5, 0.5 5.32 C0.39 5.14, 0.3 4.95, 0.22 4.76 C0.15 4.57, 0.09 4.36, 0.06 4.16 C0.02 3.96, 0 3.75, 0 3.55 C0 3.34, 0.02 3.13, 0.06 2.93 C0.09 2.73, 0.15 2.53, 0.22 2.33 C0.3 2.14, 0.39 1.95, 0.5 1.77 C0.61 1.6, 0.73 1.42, 0.87 1.27 C1.01 1.11, 1.17 0.96, 1.33 0.83 C1.5 0.7, 1.68 0.58, 1.86 0.48 C2.05 0.37, 2.25 0.28, 2.45 0.21 C2.66 0.14, 2.87 0.09, 3.08 0.05 C3.29 0.02, 3.51 0, 3.73 0 C3.94 0, 4.16 0.02, 4.37 0.05 C4.59 0.09, 4.8 0.14, 5 0.21 C5.21 0.28, 5.4 0.37, 5.59 0.48 C5.78 0.58, 5.96 0.7, 6.12 0.83 C6.29 0.96, 6.44 1.11, 6.58 1.27 C6.72 1.42, 6.85 1.6, 6.96 1.77 C7.06 1.95, 7.16 2.14, 7.23 2.33 C7.3 2.53, 7.36 2.73, 7.4 2.93 C7.44 3.13, 7.45 3.44, 7.46 3.55 C7.46 3.65, 7.46 3.44, 7.46 3.55" stroke="none" stroke-width="0" fill="#000000"></path><path d="M7.46 3.55 C7.46 3.75, 7.44 3.96, 7.4 4.16 C7.36 4.36, 7.3 4.57, 7.23 4.76 C7.16 4.95, 7.06 5.14, 6.96 5.32 C6.85 5.5, 6.72 5.67, 6.58 5.82 C6.44 5.98, 6.29 6.13, 6.12 6.26 C5.96 6.39, 5.78 6.51, 5.59 6.62 C5.4 6.72, 5.21 6.81, 5 6.88 C4.8 6.95, 4.59 7, 4.37 7.04 C4.16 7.07, 3.94 7.09, 3.73 7.09 C3.51 7.09, 3.29 7.07, 3.08 7.04 C2.87 7, 2.66 6.95, 2.45 6.88 C2.25 6.81, 2.05 6.72, 1.86 6.62 C1.68 6.51, 1.5 6.39, 1.33 6.26 C1.17 6.13, 1.01 5.98, 0.87 5.82 C0.73 5.67, 0.61 5.5, 0.5 5.32 C0.39 5.14, 0.3 4.95, 0.22 4.76 C0.15 4.57, 0.09 4.36, 0.06 4.16 C0.02 3.96, 0 3.75, 0 3.55 C0 3.34, 0.02 3.13, 0.06 2.93 C0.09 2.73, 0.15 2.53, 0.22 2.33 C0.3 2.14, 0.39 1.95, 0.5 1.77 C0.61 1.6, 0.73 1.42, 0.87 1.27 C1.01 1.11, 1.17 0.96, 1.33 0.83 C1.5 0.7, 1.68 0.58, 1.86 0.48 C2.05 0.37, 2.25 0.28, 2.45 0.21 C2.66 0.14, 2.87 0.09, 3.08 0.05 C3.29 0.02, 3.51 0, 3.73 0 C3.94 0, 4.16 0.02, 4.37 0.05 C4.59 0.09, 4.8 0.14, 5 0.21 C5.21 0.28, 5.4 0.37, 5.59 0.48 C5.78 0.58, 5.96 0.7, 6.12 0.83 C6.29 0.96, 6.44 1.11, 6.58 1.27 C6.72 1.42, 6.85 1.6, 6.96 1.77 C7.06 1.95, 7.16 2.14, 7.23 2.33 C7.3 2.53, 7.36 2.73, 7.4 2.93 C7.44 3.13, 7.45 3.44, 7.46 3.55 C7.46 3.65, 7.46 3.44, 7.46 3.55" stroke="#000000" stroke-width="1" fill="none"></path></g><g stroke-linecap="round" transform="translate(651.7749993021296 217.1950555683083) rotate(0 0.7273395478255296 0.9091744347819031)"><path d="M1.45 0.91 C1.45 0.96, 1.45 1.02, 1.44 1.07 C1.44 1.12, 1.43 1.17, 1.41 1.22 C1.4 1.27, 1.38 1.32, 1.36 1.36 C1.34 1.41, 1.31 1.45, 1.28 1.49 C1.26 1.53, 1.23 1.57, 1.19 1.61 C1.16 1.64, 1.13 1.67, 1.09 1.7 C1.05 1.72, 1.02 1.75, 0.98 1.76 C0.94 1.78, 0.9 1.8, 0.85 1.8 C0.81 1.81, 0.77 1.82, 0.73 1.82 C0.69 1.82, 0.64 1.81, 0.6 1.8 C0.56 1.8, 0.52 1.78, 0.48 1.76 C0.44 1.75, 0.4 1.72, 0.36 1.7 C0.33 1.67, 0.29 1.64, 0.26 1.61 C0.23 1.57, 0.2 1.53, 0.17 1.49 C0.14 1.45, 0.12 1.41, 0.1 1.36 C0.08 1.32, 0.06 1.27, 0.04 1.22 C0.03 1.17, 0.02 1.12, 0.01 1.07 C0 1.02, 0 0.96, 0 0.91 C0 0.86, 0 0.8, 0.01 0.75 C0.02 0.7, 0.03 0.65, 0.04 0.6 C0.06 0.55, 0.08 0.5, 0.1 0.45 C0.12 0.41, 0.14 0.37, 0.17 0.32 C0.2 0.28, 0.23 0.25, 0.26 0.21 C0.29 0.18, 0.33 0.15, 0.36 0.12 C0.4 0.1, 0.44 0.07, 0.48 0.05 C0.52 0.04, 0.56 0.02, 0.6 0.01 C0.64 0, 0.69 0, 0.73 0 C0.77 0, 0.81 0, 0.85 0.01 C0.9 0.02, 0.94 0.04, 0.98 0.05 C1.02 0.07, 1.05 0.1, 1.09 0.12 C1.13 0.15, 1.16 0.18, 1.19 0.21 C1.23 0.25, 1.26 0.28, 1.28 0.32 C1.31 0.37, 1.34 0.41, 1.36 0.45 C1.38 0.5, 1.4 0.55, 1.41 0.6 C1.43 0.65, 1.44 0.7, 1.44 0.75 C1.45 0.8, 1.45 0.88, 1.45 0.91 C1.46 0.94, 1.46 0.88, 1.45 0.91" stroke="none" stroke-width="0" fill="#ffffff"></path><path d="M1.45 0.91 C1.45 0.96, 1.45 1.02, 1.44 1.07 C1.44 1.12, 1.43 1.17, 1.41 1.22 C1.4 1.27, 1.38 1.32, 1.36 1.36 C1.34 1.41, 1.31 1.45, 1.28 1.49 C1.26 1.53, 1.23 1.57, 1.19 1.61 C1.16 1.64, 1.13 1.67, 1.09 1.7 C1.05 1.72, 1.02 1.75, 0.98 1.76 C0.94 1.78, 0.9 1.8, 0.85 1.8 C0.81 1.81, 0.77 1.82, 0.73 1.82 C0.69 1.82, 0.64 1.81, 0.6 1.8 C0.56 1.8, 0.52 1.78, 0.48 1.76 C0.44 1.75, 0.4 1.72, 0.36 1.7 C0.33 1.67, 0.29 1.64, 0.26 1.61 C0.23 1.57, 0.2 1.53, 0.17 1.49 C0.14 1.45, 0.12 1.41, 0.1 1.36 C0.08 1.32, 0.06 1.27, 0.04 1.22 C0.03 1.17, 0.02 1.12, 0.01 1.07 C0 1.02, 0 0.96, 0 0.91 C0 0.86, 0 0.8, 0.01 0.75 C0.02 0.7, 0.03 0.65, 0.04 0.6 C0.06 0.55, 0.08 0.5, 0.1 0.45 C0.12 0.41, 0.14 0.37, 0.17 0.32 C0.2 0.28, 0.23 0.25, 0.26 0.21 C0.29 0.18, 0.33 0.15, 0.36 0.12 C0.4 0.1, 0.44 0.07, 0.48 0.05 C0.52 0.04, 0.56 0.02, 0.6 0.01 C0.64 0, 0.69 0, 0.73 0 C0.77 0, 0.81 0, 0.85 0.01 C0.9 0.02, 0.94 0.04, 0.98 0.05 C1.02 0.07, 1.05 0.1, 1.09 0.12 C1.13 0.15, 1.16 0.18, 1.19 0.21 C1.23 0.25, 1.26 0.28, 1.28 0.32 C1.31 0.37, 1.34 0.41, 1.36 0.45 C1.38 0.5, 1.4 0.55, 1.41 0.6 C1.43 0.65, 1.44 0.7, 1.44 0.75 C1.45 0.8, 1.45 0.88, 1.45 0.91 C1.46 0.94, 1.46 0.88, 1.45 0.91" stroke="#ffffff" stroke-width="1" fill="none"></path></g><g stroke-linecap="round"><g transform="translate(658.5228985306708 320.0814832044468) rotate(44.56478741533535 3.250064605376302 -0.5491272726186196)" fill-rule="evenodd"><path d="M0 0 L4.26 3.78 L7.21 2.64 L7.54 0.01 L4.26 -4.08 L1.96 -4.9 L0 -4.25 L-1.29 -2.55 L0 0" stroke="none" stroke-width="0" fill="#ffffff" fill-rule="evenodd"></path><path d="M0 0 C0.21 0.28, 0.56 1.04, 1.27 1.67 C1.98 2.31, 3.27 3.62, 4.26 3.78 C5.25 3.94, 6.66 3.26, 7.21 2.64 C7.76 2.01, 8.03 1.13, 7.54 0.01 C7.05 -1.11, 5.19 -3.26, 4.26 -4.08 C3.33 -4.9, 2.67 -4.88, 1.96 -4.9 C1.25 -4.93, 0.54 -4.64, 0 -4.25 C-0.55 -3.86, -1.29 -3.26, -1.29 -2.55 C-1.29 -1.84, -0.22 -0.43, 0 0 M0 0 C0.21 0.28, 0.56 1.04, 1.27 1.67 C1.98 2.31, 3.27 3.62, 4.26 3.78 C5.25 3.94, 6.66 3.26, 7.21 2.64 C7.76 2.01, 8.03 1.13, 7.54 0.01 C7.05 -1.11, 5.19 -3.26, 4.26 -4.08 C3.33 -4.9, 2.67 -4.88, 1.96 -4.9 C1.25 -4.93, 0.54 -4.64, 0 -4.25 C-0.55 -3.86, -1.29 -3.26, -1.29 -2.55 C-1.29 -1.84, -0.22 -0.43, 0 0" stroke="#000000" stroke-width="1" fill="none"></path></g></g><g stroke-linecap="round"><g transform="translate(663.0906931338916 267.4554396884308) rotate(58.94331593365666 2.6295950782230335 -0.13195715045105771)" fill-rule="evenodd"><path d="M0 0 L4.16 4.61 L6.61 3.04 L1.35 -4.83 L-0.62 -4.12 L-1.34 -2.97 L0 0" stroke="none" stroke-width="0" fill="#ffffff" fill-rule="evenodd"></path><path d="M0 0 C0.28 0.37, 0.96 1.42, 1.65 2.19 C2.34 2.96, 3.33 4.47, 4.16 4.61 C4.98 4.75, 6.44 3.77, 6.61 3.04 C6.78 2.32, 5.71 1.17, 5.17 0.24 C4.63 -0.7, 4.01 -1.73, 3.37 -2.57 C2.74 -3.42, 2.02 -4.57, 1.35 -4.83 C0.69 -5.09, -0.17 -4.43, -0.62 -4.12 C-1.07 -3.81, -1.27 -3.36, -1.34 -2.97 C-1.42 -2.58, -1.29 -2.28, -1.07 -1.78 C-0.85 -1.29, -0.18 -0.3, 0 0 M0 0 C0.28 0.37, 0.96 1.42, 1.65 2.19 C2.34 2.96, 3.33 4.47, 4.16 4.61 C4.98 4.75, 6.44 3.77, 6.61 3.04 C6.78 2.32, 5.71 1.17, 5.17 0.24 C4.63 -0.7, 4.01 -1.73, 3.37 -2.57 C2.74 -3.42, 2.02 -4.57, 1.35 -4.83 C0.69 -5.09, -0.17 -4.43, -0.62 -4.12 C-1.07 -3.81, -1.27 -3.36, -1.34 -2.97 C-1.42 -2.58, -1.29 -2.28, -1.07 -1.78 C-0.85 -1.29, -0.18 -0.3, 0 0" stroke="#000000" stroke-width="1" fill="none"></path></g></g><g transform="translate(534.1152503352348 18.57868655435385) rotate(0 109 224.99999999999997)"><text x="0" y="311" font-family="Helvetica, Segoe UI Emoji" font-size="374.82995751196705px" fill="#007d9c" text-anchor="start" style="white-space: pre;" direction="ltr">tt</text></g></svg>