<svg version="1.1" xmlns="http://www.w3.org/2000/svg" viewBox="0 0 362.1152503352349 228.84250809917933" width="362.1152503352349" height="228.84250809917933">
  <!-- svg-source:excalidraw -->
  
  <defs>
    <style class="style-fonts">
      @font-face {
        font-family: "Virgil";
        src: url("https://excalidraw.com/Virgil.woff2");
      }
      @font-face {
        font-family: "Cascadia";
        src: url("https://excalidraw.com/Cascadia.woff2");
      }
    </style>
  </defs>
  <g stroke-linecap="round"><g transform="translate(285.7907644604354 128.0052472590319) rotate(70.7911098736198 1.2166946943787735 -0.06105562265793196)" fill-rule="evenodd"><path d="M0 0 L1.92 2.13 L3.06 1.41 L0.62 -2.23 L-0.62 -1.37 L0 0" stroke="none" stroke-width="0" fill="#ffffff" fill-rule="evenodd"></path><path d="M0 0 C0.13 0.17, 0.44 0.66, 0.76 1.01 C1.08 1.37, 1.54 2.07, 1.92 2.13 C2.31 2.2, 2.98 1.75, 3.06 1.41 C3.14 1.07, 2.64 0.54, 2.39 0.11 C2.14 -0.32, 1.85 -0.8, 1.56 -1.19 C1.27 -1.58, 0.93 -2.12, 0.62 -2.23 C0.32 -2.35, -0.08 -2.05, -0.29 -1.91 C-0.49 -1.76, -0.59 -1.55, -0.62 -1.37 C-0.66 -1.19, -0.6 -1.05, -0.5 -0.82 C-0.39 -0.59, -0.08 -0.14, 0 0 M0 0 C0.13 0.17, 0.44 0.66, 0.76 1.01 C1.08 1.37, 1.54 2.07, 1.92 2.13 C2.31 2.2, 2.98 1.75, 3.06 1.41 C3.14 1.07, 2.64 0.54, 2.39 0.11 C2.14 -0.32, 1.85 -0.8, 1.56 -1.19 C1.27 -1.58, 0.93 -2.12, 0.62 -2.23 C0.32 -2.35, -0.08 -2.05, -0.29 -1.91 C-0.49 -1.76, -0.59 -1.55, -0.62 -1.37 C-0.66 -1.19, -0.6 -1.05, -0.5 -0.82 C-0.39 -0.59, -0.08 -0.14, 0 0" stroke="#000000" stroke-width="1" fill="none"></path></g></g><g stroke-linecap="round"><g transform="translate(288.9366944667595 151.16962592739935) rotate(61.296384782494115 1.494641048621066 -0.35452869890751515)" fill-rule="evenodd"><path d="M0 0 L1.97 1.75 L3.14 1.17 L3.34 -0.13 L0.93 -2.46 L-0.44 -1.04 L0 0" stroke="none" stroke-width="0" fill="#ffffff" fill-rule="evenodd"></path><path d="M0 0 C0.13 0.16, 0.48 0.64, 0.81 0.93 C1.14 1.22, 1.58 1.71, 1.97 1.75 C2.36 1.79, 2.92 1.48, 3.14 1.17 C3.37 0.85, 3.53 0.38, 3.34 -0.13 C3.14 -0.64, 2.37 -1.5, 1.97 -1.89 C1.57 -2.28, 1.26 -2.45, 0.93 -2.46 C0.6 -2.48, 0.23 -2.2, 0 -1.97 C-0.23 -1.73, -0.44 -1.37, -0.44 -1.04 C-0.44 -0.71, -0.07 -0.17, 0 0 M0 0 C0.13 0.16, 0.48 0.64, 0.81 0.93 C1.14 1.22, 1.58 1.71, 1.97 1.75 C2.36 1.79, 2.92 1.48, 3.14 1.17 C3.37 0.85, 3.53 0.38, 3.34 -0.13 C3.14 -0.64, 2.37 -1.5, 1.97 -1.89 C1.57 -2.28, 1.26 -2.45, 0.93 -2.46 C0.6 -2.48, 0.23 -2.2, 0 -1.97 C-0.23 -1.73, -0.44 -1.37, -0.44 -1.04 C-0.44 -0.71, -0.07 -0.17, 0 0" stroke="#000000" stroke-width="1" fill="none"></path></g></g><g stroke-linecap="round"><g transform="translate(290.9515003769088 96.21514641854614) rotate(356.57434765220694 0.7925065040002579 -2.3673928378781284)" fill-rule="evenodd"><path d="M0 0 L-1.59 -2.65 L-1.14 -4.04 L0.57 -4.72 L3.07 -2.14 L0 0" stroke="none" stroke-width="0" fill="#ffcaca" fill-rule="evenodd"></path><path d="M0 0 C-0.16 -0.21, -0.7 -0.79, -0.96 -1.23 C-1.23 -1.67, -1.56 -2.18, -1.59 -2.65 C-1.62 -3.12, -1.5 -3.7, -1.14 -4.04 C-0.78 -4.39, 0 -4.83, 0.57 -4.72 C1.15 -4.6, 1.89 -3.78, 2.31 -3.35 C2.73 -2.93, 2.99 -2.37, 3.07 -2.14 C3.16 -1.91, 3.35 -2.32, 2.84 -1.96 C2.32 -1.61, 0.47 -0.33, 0 0 M0 0 C-0.16 -0.21, -0.7 -0.79, -0.96 -1.23 C-1.23 -1.67, -1.56 -2.18, -1.59 -2.65 C-1.62 -3.12, -1.5 -3.7, -1.14 -4.04 C-0.78 -4.39, 0 -4.83, 0.57 -4.72 C1.15 -4.6, 1.89 -3.78, 2.31 -3.35 C2.73 -2.93, 2.99 -2.37, 3.07 -2.14 C3.16 -1.91, 3.35 -2.32, 2.84 -1.96 C2.32 -1.61, 0.47 -0.33, 0 0" stroke="#bccfde" stroke-width="1" fill="none"></path></g></g><g stroke-linecap="round"><g transform="translate(292.2019067341305 95.17309680642322) rotate(343.0962830115082 -0.5383831200310176 -0.9009206953147242)" fill-rule="evenodd"><path d="" stroke="none" stroke-width="0" fill="#ffcaca" fill-rule="evenodd"></path><path d="M0 0 C-0.08 -0.14, -0.33 -0.56, -0.51 -0.86 C-0.69 -1.16, -0.98 -1.64, -1.08 -1.8 M0 0 C-0.08 -0.14, -0.33 -0.56, -0.51 -0.86 C-0.69 -1.16, -0.98 -1.64, -1.08 -1.8" stroke="#000000" stroke-width="1" fill="none"></path></g></g><g stroke-linecap="round"><g transform="translate(290.9603971823901 96.2094973709446) rotate(356.57434765220694 0.7849243187096278 -2.3673928378781284)" fill-rule="evenodd"><path d="M0 0 L-1.59 -2.65 L-1.14 -4.04 L0.57 -4.72 L3.17 -2.06" stroke="none" stroke-width="0" fill="#ffcaca" fill-rule="evenodd"></path><path d="M0 0 C-0.16 -0.21, -0.7 -0.79, -0.96 -1.23 C-1.23 -1.67, -1.56 -2.18, -1.59 -2.65 C-1.62 -3.12, -1.5 -3.7, -1.14 -4.04 C-0.78 -4.39, 0 -4.83, 0.57 -4.72 C1.15 -4.6, 1.88 -3.8, 2.31 -3.35 C2.74 -2.91, 3.02 -2.27, 3.17 -2.06 M0 0 C-0.16 -0.21, -0.7 -0.79, -0.96 -1.23 C-1.23 -1.67, -1.56 -2.18, -1.59 -2.65 C-1.62 -3.12, -1.5 -3.7, -1.14 -4.04 C-0.78 -4.39, 0 -4.83, 0.57 -4.72 C1.15 -4.6, 1.88 -3.8, 2.31 -3.35 C2.74 -2.91, 3.02 -2.27, 3.17 -2.06" stroke="#000000" stroke-width="1" fill="none"></path></g></g><g stroke-linecap="round"><g transform="translate(292.19838108938893 94.97061601089567) rotate(343.0962830115082 0.05219641142921816 -0.8801210607391852)" fill-rule="evenodd"><path d="" stroke="none" stroke-width="0" fill="#ffcaca" fill-rule="evenodd"></path><path d="M0 0 C-0.01 -0.18, -0.07 -0.77, -0.04 -1.06 C-0.02 -1.36, 0.12 -1.64, 0.15 -1.76 M0 0 C-0.01 -0.18, -0.07 -0.77, -0.04 -1.06 C-0.02 -1.36, 0.12 -1.64, 0.15 -1.76" stroke="#000000" stroke-width="1" fill="none"></path></g></g><g stroke-linecap="round"><g transform="translate(292.2074447573784 95.2106126152442) rotate(343.0962830115082 -0.5383831200310176 -0.9009206953147242)" fill-rule="evenodd"><path d="" stroke="none" stroke-width="0" fill="#ffcaca" fill-rule="evenodd"></path><path d="M0 0 C-0.08 -0.14, -0.33 -0.56, -0.51 -0.86 C-0.69 -1.16, -0.98 -1.64, -1.08 -1.8 M0 0 C-0.08 -0.14, -0.33 -0.56, -0.51 -0.86 C-0.69 -1.16, -0.98 -1.64, -1.08 -1.8" stroke="#000000" stroke-width="1" fill="none"></path></g></g><g stroke-linecap="round"><g transform="translate(292.2039191126371 95.00813181971657) rotate(343.0962830115082 0.05219641142921816 -0.8801210607391852)" fill-rule="evenodd"><path d="" stroke="none" stroke-width="0" fill="#ffcaca" fill-rule="evenodd"></path><path d="M0 0 C-0.01 -0.18, -0.07 -0.77, -0.04 -1.06 C-0.02 -1.36, 0.12 -1.64, 0.15 -1.76 M0 0 C-0.01 -0.18, -0.07 -0.77, -0.04 -1.06 C-0.02 -1.36, 0.12 -1.64, 0.15 -1.76" stroke="#000000" stroke-width="1" fill="none"></path></g></g><g stroke-linecap="round"><g transform="translate(326.8952767234848 132.91258015462) rotate(0 -19.667048082025467 -10.940833520636488)" fill-rule="evenodd"><path d="M0 0 L-1.07 8.38 L-4.61 14.65 L-11.53 18.95 L-20.77 20.78 L-30.72 19.53 L-34.46 18.12 L-37.26 15.58 L-38.9 11.36 L-39.6 5.28 L-37.93 -34.2 L-35.87 -37.75 L-32.49 -40.41 L-27.4 -42.01 L-21.86 -42.65 L-12.74 -41.19 L-6.11 -37.37 L-2.02 -31.47 L-0.65 -27.12 L0.18 -20.9 L0 0" stroke="none" stroke-width="0" fill="#ffcaca" fill-rule="evenodd"></path><path d="M0 0 C-0.18 1.4, -0.3 5.94, -1.07 8.38 C-1.84 10.82, -2.87 12.89, -4.61 14.65 C-6.35 16.42, -8.83 17.93, -11.53 18.95 C-14.22 19.97, -17.57 20.68, -20.77 20.78 C-23.96 20.87, -27.97 20.4, -30.72 19.53 C-33.47 18.67, -35.78 17.95, -37.26 15.58 C-38.74 13.2, -39.36 10.14, -39.6 5.28 C-39.83 0.43, -38.93 -8.54, -38.67 -13.57 C-38.4 -18.6, -38.13 -21.47, -38.01 -24.91 C-37.89 -28.35, -38.85 -31.62, -37.93 -34.2 C-37.01 -36.79, -35.16 -39, -32.49 -40.41 C-29.81 -41.82, -25.15 -42.52, -21.86 -42.65 C-18.57 -42.78, -15.37 -42.08, -12.74 -41.19 C-10.11 -40.31, -7.89 -38.99, -6.11 -37.37 C-4.32 -35.75, -3.07 -34.21, -2.02 -31.47 C-0.97 -28.73, -0.15 -26.14, 0.18 -20.9 C0.52 -15.65, 0.03 -3.48, 0 0 M0 0 C-0.18 1.4, -0.3 5.94, -1.07 8.38 C-1.84 10.82, -2.87 12.89, -4.61 14.65 C-6.35 16.42, -8.83 17.93, -11.53 18.95 C-14.22 19.97, -17.57 20.68, -20.77 20.78 C-23.96 20.87, -27.97 20.4, -30.72 19.53 C-33.47 18.67, -35.78 17.95, -37.26 15.58 C-38.74 13.2, -39.36 10.14, -39.6 5.28 C-39.83 0.43, -38.93 -8.54, -38.67 -13.57 C-38.4 -18.6, -38.13 -21.47, -38.01 -24.91 C-37.89 -28.35, -38.85 -31.62, -37.93 -34.2 C-37.01 -36.79, -35.16 -39, -32.49 -40.41 C-29.81 -41.82, -25.15 -42.52, -21.86 -42.65 C-18.57 -42.78, -15.37 -42.08, -12.74 -41.19 C-10.11 -40.31, -7.89 -38.99, -6.11 -37.37 C-4.32 -35.75, -3.07 -34.21, -2.02 -31.47 C-0.97 -28.73, -0.15 -26.14, 0.18 -20.9 C0.52 -15.65, 0.03 -3.48, 0 0" stroke="#000000" stroke-width="1" fill="none"></path></g></g><g stroke-linecap="round"><g stroke-opacity="0.6" fill-opacity="0.6" transform="translate(304.21391604730593 153.10556940539638) rotate(0 -5.306338960221073 -11.115663549151648)" fill-rule="evenodd"><path d="M0 0 L-5.42 0.01 L-11.37 -2.08 L-15.14 -5.95 L-16.47 -11.57 L-16.22 -15.84 L-14.54 -19.71 L-9.86 -21.91 L-4.37 -22.15 L0.35 -19.11 L4 -14.54 L5.67 -9.44 L5.6 -4.7 L2.9 -1.74 L0 0" stroke="none" stroke-width="0" fill="#ffffff" fill-rule="evenodd"></path><path d="M0 0 C-0.9 0, -3.53 0.36, -5.42 0.01 C-7.32 -0.33, -9.75 -1.08, -11.37 -2.08 C-12.99 -3.07, -14.29 -4.37, -15.14 -5.95 C-15.99 -7.53, -16.57 -9.28, -16.47 -11.57 C-16.37 -13.86, -16.55 -17.94, -14.54 -19.71 C-12.52 -21.47, -7.46 -23.01, -4.37 -22.15 C-1.29 -21.29, 2.33 -17.45, 4 -14.54 C5.66 -11.63, 6.27 -7.12, 5.6 -4.7 C4.94 -2.28, 0.93 -0.78, 0 0 M0 0 C-0.9 0, -3.53 0.36, -5.42 0.01 C-7.32 -0.33, -9.75 -1.08, -11.37 -2.08 C-12.99 -3.07, -14.29 -4.37, -15.14 -5.95 C-15.99 -7.53, -16.57 -9.28, -16.47 -11.57 C-16.37 -13.86, -16.55 -17.94, -14.54 -19.71 C-12.52 -21.47, -7.46 -23.01, -4.37 -22.15 C-1.29 -21.29, 2.33 -17.45, 4 -14.54 C5.66 -11.63, 6.27 -7.12, 5.6 -4.7 C4.94 -2.28, 0.93 -0.78, 0 0" stroke="#000000" stroke-width="1" fill="none"></path></g></g><g stroke-linecap="round"><g transform="translate(321.81517113813015 95.8497236747067) rotate(422.26923488609646 -2.3661576023258384 -0.20495708187131356)" fill-rule="evenodd"><path d="M0 0 L-3.41 2.09 L-4.73 -0.51 L-4.27 -1.9 L-2.57 -2.58 L0 0" stroke="none" stroke-width="0" fill="#ffcaca" fill-rule="evenodd"></path><path d="M0 0 C-0.47 0.31, -2.25 1.53, -2.82 1.87 C-3.39 2.22, -3.19 2.25, -3.41 2.09 C-3.62 1.93, -3.88 1.34, -4.1 0.91 C-4.32 0.48, -4.7 -0.04, -4.73 -0.51 C-4.76 -0.98, -4.63 -1.56, -4.27 -1.9 C-3.91 -2.25, -3.14 -2.69, -2.57 -2.58 C-1.99 -2.46, -1.25 -1.64, -0.83 -1.21 C-0.4 -0.78, -0.14 -0.2, 0 0 M0 0 C-0.47 0.31, -2.25 1.53, -2.82 1.87 C-3.39 2.22, -3.19 2.25, -3.41 2.09 C-3.62 1.93, -3.88 1.34, -4.1 0.91 C-4.32 0.48, -4.7 -0.04, -4.73 -0.51 C-4.76 -0.98, -4.63 -1.56, -4.27 -1.9 C-3.91 -2.25, -3.14 -2.69, -2.57 -2.58 C-1.99 -2.46, -1.25 -1.64, -0.83 -1.21 C-0.4 -0.78, -0.14 -0.2, 0 0" stroke="#ffcaca" stroke-width="1" fill="none"></path></g></g><g stroke-linecap="round"><g transform="translate(319.37435954606485 96.45192675254265) rotate(408.7911702453978 -0.6463433423435099 -0.5745274154164548)" fill-rule="evenodd"><path d="" stroke="none" stroke-width="0" fill="#ffcaca" fill-rule="evenodd"></path><path d="M0 0 C-0.05 -0.12, -0.1 -0.55, -0.31 -0.74 C-0.53 -0.93, -1.13 -1.08, -1.29 -1.15 M0 0 C-0.05 -0.12, -0.1 -0.55, -0.31 -0.74 C-0.53 -0.93, -1.13 -1.08, -1.29 -1.15" stroke="#000000" stroke-width="1" fill="none"></path></g></g><g stroke-linecap="round"><g transform="translate(319.55947936978555 97.05400497209678) rotate(408.7911702453978 -0.0607090043639964 -1.0412973314493712)" fill-rule="evenodd"><path d="" stroke="none" stroke-width="0" fill="#ffcaca" fill-rule="evenodd"></path><path d="M0 0 C-0.02 -0.15, -0.11 -0.54, -0.12 -0.89 C-0.13 -1.23, -0.08 -1.88, -0.07 -2.08 M0 0 C-0.02 -0.15, -0.11 -0.54, -0.12 -0.89 C-0.13 -1.23, -0.08 -1.88, -0.07 -2.08" stroke="#000000" stroke-width="1" fill="none"></path></g></g><g stroke-linecap="round"><g transform="translate(318.4547503786646 98.08444495599196) rotate(422.26923488609646 1.0118758107428931 -2.4199593638090278)" fill-rule="evenodd"><path d="M0 0 L-1.38 -2.75 L-0.93 -4.15 L0.78 -4.82 L3.41 -2.23" stroke="none" stroke-width="0" fill="#ffcaca" fill-rule="evenodd"></path><path d="M0 0 C-0.13 -0.21, -0.55 -0.8, -0.78 -1.26 C-1.01 -1.72, -1.36 -2.27, -1.38 -2.75 C-1.41 -3.23, -1.29 -3.8, -0.93 -4.15 C-0.57 -4.49, 0.17 -4.95, 0.78 -4.82 C1.38 -4.69, 2.25 -3.79, 2.69 -3.36 C3.13 -2.93, 3.29 -2.42, 3.41 -2.23 M0 0 C-0.13 -0.21, -0.55 -0.8, -0.78 -1.26 C-1.01 -1.72, -1.36 -2.27, -1.38 -2.75 C-1.41 -3.23, -1.29 -3.8, -0.93 -4.15 C-0.57 -4.49, 0.17 -4.95, 0.78 -4.82 C1.38 -4.69, 2.25 -3.79, 2.69 -3.36 C3.13 -2.93, 3.29 -2.42, 3.41 -2.23" stroke="#000000" stroke-width="1" fill="none"></path></g></g><g stroke-linecap="round"><g transform="translate(295.1220254502239 117.75730157573423) rotate(359.02968387063 3.1161686650449028 -0.9843879066260115)" fill-rule="evenodd"><path d="M0 0 L1.23 -2.36 L3.17 -2.67 L4.81 -2.5 L6.21 -0.41 L5.45 0.48 L0.43 0.64 L0.02 0.08" stroke="none" stroke-width="0" fill="#ccbdac" fill-rule="evenodd"></path><path d="M0 0 C0.02 -0.18, -0.09 -0.69, 0.12 -1.08 C0.32 -1.48, 0.72 -2.09, 1.23 -2.36 C1.74 -2.62, 2.58 -2.65, 3.17 -2.67 C3.77 -2.7, 4.34 -2.68, 4.81 -2.5 C5.28 -2.31, 5.75 -1.92, 5.98 -1.57 C6.22 -1.22, 6.3 -0.75, 6.21 -0.41 C6.12 -0.07, 5.92 0.34, 5.45 0.48 C4.97 0.63, 4.01 0.41, 3.37 0.44 C2.72 0.48, 2.06 0.65, 1.58 0.68 C1.09 0.72, 0.69 0.74, 0.43 0.64 C0.17 0.54, 0.09 0.17, 0.02 0.08 M0 0 C0.02 -0.18, -0.09 -0.69, 0.12 -1.08 C0.32 -1.48, 0.72 -2.09, 1.23 -2.36 C1.74 -2.62, 2.58 -2.65, 3.17 -2.67 C3.77 -2.7, 4.34 -2.68, 4.81 -2.5 C5.28 -2.31, 5.75 -1.92, 5.98 -1.57 C6.22 -1.22, 6.3 -0.75, 6.21 -0.41 C6.12 -0.07, 5.92 0.34, 5.45 0.48 C4.97 0.63, 4.01 0.41, 3.37 0.44 C2.72 0.48, 2.06 0.65, 1.58 0.68 C1.09 0.72, 0.69 0.74, 0.43 0.64 C0.17 0.54, 0.09 0.17, 0.02 0.08" stroke="#000000" stroke-width="1" fill="none"></path></g></g><g stroke-linecap="round"><g transform="translate(298.31684773360735 118.32411113812998) rotate(359.02968387063 -1.3255880064308592 -1.3788648102341625)" fill-rule="evenodd"><path d="M0 0 L-0.87 -1.12 L0.32 -1.91 L-0.75 -2.88 L-2.53 -2.15 L-2.87 -0.31 L0 0" stroke="none" stroke-width="0" fill="#958b7f" fill-rule="evenodd"></path><path d="M0 0 C-0.06 -0.02, -0.2 -0.06, -0.34 -0.14 C-0.48 -0.21, -0.75 -0.3, -0.84 -0.47 C-0.93 -0.63, -0.94 -0.95, -0.87 -1.12 C-0.8 -1.29, -0.6 -1.36, -0.4 -1.49 C-0.21 -1.62, 0.38 -1.67, 0.32 -1.91 C0.26 -2.14, -0.38 -2.75, -0.75 -2.88 C-1.11 -3.02, -1.57 -2.83, -1.87 -2.71 C-2.17 -2.58, -2.37 -2.32, -2.53 -2.15 C-2.7 -1.98, -2.78 -1.86, -2.85 -1.67 C-2.93 -1.48, -2.97 -1.26, -2.97 -1.04 C-2.98 -0.81, -2.97 -0.49, -2.87 -0.31 C-2.78 -0.13, -2.57 -0.04, -2.41 0.04 C-2.24 0.12, -2.12 0.18, -1.89 0.17 C-1.65 0.16, -1.32 0.01, -1 -0.02 C-0.69 -0.05, -0.17 0, 0 0 M0 0 C-0.06 -0.02, -0.2 -0.06, -0.34 -0.14 C-0.48 -0.21, -0.75 -0.3, -0.84 -0.47 C-0.93 -0.63, -0.94 -0.95, -0.87 -1.12 C-0.8 -1.29, -0.6 -1.36, -0.4 -1.49 C-0.21 -1.62, 0.38 -1.67, 0.32 -1.91 C0.26 -2.14, -0.38 -2.75, -0.75 -2.88 C-1.11 -3.02, -1.57 -2.83, -1.87 -2.71 C-2.17 -2.58, -2.37 -2.32, -2.53 -2.15 C-2.7 -1.98, -2.78 -1.86, -2.85 -1.67 C-2.93 -1.48, -2.97 -1.26, -2.97 -1.04 C-2.98 -0.81, -2.97 -0.49, -2.87 -0.31 C-2.78 -0.13, -2.57 -0.04, -2.41 0.04 C-2.24 0.12, -2.12 0.18, -1.89 0.17 C-1.65 0.16, -1.32 0.01, -1 -0.02 C-0.69 -0.05, -0.17 0, 0 0" stroke="#958b7f" stroke-width="1" fill="none"></path></g></g><g stroke-linecap="round"><g transform="translate(295.1026678352853 117.77491647805388) rotate(359.02968387063 3.0887573373748687 -0.9435006514636939)"><path d="M0 0 C0.01 -0.17, -0.17 -0.67, 0.03 -1.05 C0.23 -1.42, 0.68 -1.99, 1.19 -2.26 C1.7 -2.52, 2.5 -2.6, 3.09 -2.63 C3.68 -2.67, 4.25 -2.61, 4.72 -2.46 C5.2 -2.3, 5.69 -2, 5.94 -1.69 C6.19 -1.38, 6.27 -0.93, 6.23 -0.58 C6.2 -0.22, 5.93 0.24, 5.73 0.44 C5.54 0.64, 5.45 0.62, 5.04 0.63 C4.63 0.63, 3.9 0.44, 3.28 0.46 C2.66 0.48, 1.79 0.74, 1.31 0.75 C0.83 0.77, 0.64 0.71, 0.41 0.57 C0.19 0.43, 0.05 0.03, -0.03 -0.08 M0 0 C0.01 -0.17, -0.17 -0.67, 0.03 -1.05 C0.23 -1.42, 0.68 -1.99, 1.19 -2.26 C1.7 -2.52, 2.5 -2.6, 3.09 -2.63 C3.68 -2.67, 4.25 -2.61, 4.72 -2.46 C5.2 -2.3, 5.69 -2, 5.94 -1.69 C6.19 -1.38, 6.27 -0.93, 6.23 -0.58 C6.2 -0.22, 5.93 0.24, 5.73 0.44 C5.54 0.64, 5.45 0.62, 5.04 0.63 C4.63 0.63, 3.9 0.44, 3.28 0.46 C2.66 0.48, 1.79 0.74, 1.31 0.75 C0.83 0.77, 0.64 0.71, 0.41 0.57 C0.19 0.43, 0.05 0.03, -0.03 -0.08" stroke="#000000" stroke-width="1" fill="none"></path></g></g><g stroke-linecap="round"><g transform="translate(295.89523681918126 114.84623218588342) rotate(359.02968387063 2.1935313131251917 -0.01135142675079237)" fill-rule="evenodd"><path d="M0 0 L0.82 -1.17 L4.37 -0.77 L3.75 0.81 L2.27 1.36 L0 0" stroke="none" stroke-width="0" fill="#595755" fill-rule="evenodd"></path><path d="M0 0 C0.01 -0.11, -0.08 -0.46, 0.05 -0.66 C0.19 -0.85, 0.46 -1.05, 0.82 -1.17 C1.17 -1.29, 1.73 -1.33, 2.18 -1.36 C2.62 -1.38, 3.13 -1.42, 3.5 -1.32 C3.86 -1.22, 4.25 -1.03, 4.37 -0.77 C4.49 -0.51, 4.32 -0.03, 4.21 0.23 C4.11 0.49, 3.93 0.65, 3.75 0.81 C3.57 0.96, 3.36 1.08, 3.11 1.17 C2.87 1.26, 2.62 1.39, 2.27 1.36 C1.92 1.33, 1.35 1.16, 1.01 1.02 C0.67 0.87, 0.41 0.67, 0.24 0.5 C0.07 0.33, 0.04 0.08, 0 0 M0 0 C0.01 -0.11, -0.08 -0.46, 0.05 -0.66 C0.19 -0.85, 0.46 -1.05, 0.82 -1.17 C1.17 -1.29, 1.73 -1.33, 2.18 -1.36 C2.62 -1.38, 3.13 -1.42, 3.5 -1.32 C3.86 -1.22, 4.25 -1.03, 4.37 -0.77 C4.49 -0.51, 4.32 -0.03, 4.21 0.23 C4.11 0.49, 3.93 0.65, 3.75 0.81 C3.57 0.96, 3.36 1.08, 3.11 1.17 C2.87 1.26, 2.62 1.39, 2.27 1.36 C1.92 1.33, 1.35 1.16, 1.01 1.02 C0.67 0.87, 0.41 0.67, 0.24 0.5 C0.07 0.33, 0.04 0.08, 0 0" stroke="#000000" stroke-width="1" fill="none"></path></g></g><g stroke-linecap="round"><g transform="translate(299.16626797784147 115.98939174315865) rotate(359.02968387063 -1.6117057077303691 -1.1637469713730582)" fill-rule="evenodd"><path d="M0 0 L-1.89 -0.87 L-0.82 -2.46 L-3.16 -1.62 L-2.04 -0.01 L0 0" stroke="none" stroke-width="0" fill="#454342" fill-rule="evenodd"></path><path d="M0 0 C-0.13 0, -0.55 0.08, -0.79 0.03 C-1.03 -0.03, -1.25 -0.19, -1.44 -0.34 C-1.62 -0.49, -1.81 -0.68, -1.89 -0.87 C-1.98 -1.05, -2 -1.25, -1.94 -1.45 C-1.88 -1.64, -1.73 -1.86, -1.55 -2.03 C-1.36 -2.2, -0.73 -2.41, -0.82 -2.46 C-0.92 -2.51, -1.78 -2.4, -2.12 -2.34 C-2.45 -2.28, -2.66 -2.22, -2.84 -2.1 C-3.01 -1.97, -3.1 -1.8, -3.16 -1.62 C-3.22 -1.43, -3.25 -1.17, -3.2 -1 C-3.15 -0.83, -2.97 -0.72, -2.85 -0.59 C-2.73 -0.47, -2.61 -0.35, -2.48 -0.26 C-2.35 -0.16, -2.22 -0.08, -2.04 -0.01 C-1.87 0.06, -1.76 0.15, -1.42 0.15 C-1.08 0.15, -0.24 0.02, 0 0 M0 0 C-0.13 0, -0.55 0.08, -0.79 0.03 C-1.03 -0.03, -1.25 -0.19, -1.44 -0.34 C-1.62 -0.49, -1.81 -0.68, -1.89 -0.87 C-1.98 -1.05, -2 -1.25, -1.94 -1.45 C-1.88 -1.64, -1.73 -1.86, -1.55 -2.03 C-1.36 -2.2, -0.73 -2.41, -0.82 -2.46 C-0.92 -2.51, -1.78 -2.4, -2.12 -2.34 C-2.45 -2.28, -2.66 -2.22, -2.84 -2.1 C-3.01 -1.97, -3.1 -1.8, -3.16 -1.62 C-3.22 -1.43, -3.25 -1.17, -3.2 -1 C-3.15 -0.83, -2.97 -0.72, -2.85 -0.59 C-2.73 -0.47, -2.61 -0.35, -2.48 -0.26 C-2.35 -0.16, -2.22 -0.08, -2.04 -0.01 C-1.87 0.06, -1.76 0.15, -1.42 0.15 C-1.08 0.15, -0.24 0.02, 0 0" stroke="#454342" stroke-width="1" fill="none"></path></g></g><g stroke-linecap="round"><g transform="translate(295.8277641981217 114.83027661132672) rotate(359.02968387063 2.2284050967794045 0.04273406810126801)"><path d="M0 0 C0.01 -0.11, -0.08 -0.46, 0.05 -0.66 C0.18 -0.85, 0.45 -1.05, 0.79 -1.17 C1.13 -1.29, 1.8 -1.33, 2.1 -1.36 C2.41 -1.39, 2.45 -1.35, 2.64 -1.35 C2.83 -1.35, 3.01 -1.38, 3.22 -1.36 C3.44 -1.34, 3.71 -1.33, 3.91 -1.23 C4.12 -1.12, 4.38 -0.93, 4.45 -0.73 C4.53 -0.52, 4.42 -0.22, 4.36 -0.01 C4.3 0.21, 4.29 0.36, 4.11 0.56 C3.93 0.76, 3.58 1.05, 3.28 1.2 C2.97 1.35, 2.65 1.48, 2.27 1.45 C1.88 1.43, 1.3 1.22, 0.97 1.06 C0.64 0.9, 0.45 0.65, 0.29 0.47 C0.12 0.3, 0.05 0.08, 0 0 M0 0 C0.01 -0.11, -0.08 -0.46, 0.05 -0.66 C0.18 -0.85, 0.45 -1.05, 0.79 -1.17 C1.13 -1.29, 1.8 -1.33, 2.1 -1.36 C2.41 -1.39, 2.45 -1.35, 2.64 -1.35 C2.83 -1.35, 3.01 -1.38, 3.22 -1.36 C3.44 -1.34, 3.71 -1.33, 3.91 -1.23 C4.12 -1.12, 4.38 -0.93, 4.45 -0.73 C4.53 -0.52, 4.42 -0.22, 4.36 -0.01 C4.3 0.21, 4.29 0.36, 4.11 0.56 C3.93 0.76, 3.58 1.05, 3.28 1.2 C2.97 1.35, 2.65 1.48, 2.27 1.45 C1.88 1.43, 1.3 1.22, 0.97 1.06 C0.64 0.9, 0.45 0.65, 0.29 0.47 C0.12 0.3, 0.05 0.08, 0 0" stroke="#000000" stroke-width="1" fill="none"></path></g></g><g stroke-linecap="round"><g transform="translate(299.0028371376968 114.1620686656523) rotate(359.02968387063 0.20610260095769561 0.3786623439807357)" fill-rule="evenodd"><path d="" stroke="none" stroke-width="0" fill="#454342" fill-rule="evenodd"></path><path d="M0 0 C0.07 0.06, 0.36 0.21, 0.4 0.34 C0.45 0.46, 0.29 0.69, 0.26 0.76 M0 0 C0.07 0.06, 0.36 0.21, 0.4 0.34 C0.45 0.46, 0.29 0.69, 0.26 0.76" stroke="#000000" stroke-width="1" fill="none"></path></g></g><g stroke-linecap="round"><g transform="translate(296.5104830572586 118.58446521762173) rotate(359.9298638803776 0.014141432106328011 0.6222230126784893)"><path d="M0 0 C0 0.21, 0.02 1.04, 0.03 1.24 M0 0 C0 0.21, 0.02 1.04, 0.03 1.24" stroke="#000000" stroke-width="1" fill="none"></path></g></g><g stroke-linecap="round"><g transform="translate(296.49535580394377 119.65247938334858) rotate(359.9298638803776 1.4976706698086915 -0.24367204074152937)" fill-rule="evenodd"><path d="M0 0 L0.24 0.77 L2.18 0.84 L2.96 0.47 L3.02 -1.28 L-0.01 -1.04 L0 0" stroke="none" stroke-width="0" fill="#ffffff" fill-rule="evenodd"></path><path d="M0 0 C0.04 0.13, 0.04 0.61, 0.24 0.77 C0.44 0.92, 0.86 0.91, 1.18 0.92 C1.5 0.93, 1.88 0.91, 2.18 0.84 C2.48 0.76, 2.81 0.67, 2.96 0.47 C3.12 0.26, 3.1 -0.12, 3.11 -0.41 C3.12 -0.7, 3.12 -1.11, 3.02 -1.28 C2.92 -1.45, 2.75 -1.4, 2.48 -1.41 C2.22 -1.42, 1.84 -1.4, 1.42 -1.33 C1.01 -1.27, 0.22 -1.26, -0.01 -1.04 C-0.25 -0.82, 0 -0.17, 0 0 M0 0 C0.04 0.13, 0.04 0.61, 0.24 0.77 C0.44 0.92, 0.86 0.91, 1.18 0.92 C1.5 0.93, 1.88 0.91, 2.18 0.84 C2.48 0.76, 2.81 0.67, 2.96 0.47 C3.12 0.26, 3.1 -0.12, 3.11 -0.41 C3.12 -0.7, 3.12 -1.11, 3.02 -1.28 C2.92 -1.45, 2.75 -1.4, 2.48 -1.41 C2.22 -1.42, 1.84 -1.4, 1.42 -1.33 C1.01 -1.27, 0.22 -1.26, -0.01 -1.04 C-0.25 -0.82, 0 -0.17, 0 0" stroke="#000000" stroke-width="1" fill="none"></path></g></g><g stroke-linecap="round"><g transform="translate(297.9293171462325 118.35667816692126) rotate(359.9298638803776 0.011064236520308413 1.0606074079747003)" fill-rule="evenodd"><path d="" stroke="none" stroke-width="0" fill="#ffffff" fill-rule="evenodd"></path><path d="M0 0 C-0.01 0.16, -0.04 0.6, -0.03 0.95 C-0.02 1.3, 0.04 1.93, 0.06 2.12 M0 0 C-0.01 0.16, -0.04 0.6, -0.03 0.95 C-0.02 1.3, 0.04 1.93, 0.06 2.12" stroke="#000000" stroke-width="1" fill="none"></path></g></g><g stroke-linecap="round" transform="translate(284.1832086517643 97.25496238817016) rotate(0 7.555122748568358 7.629557455450808)"><path d="M15.11 7.63 C15.11 8.07, 15.07 8.52, 15 8.95 C14.92 9.39, 14.8 9.82, 14.65 10.24 C14.51 10.65, 14.32 11.06, 14.1 11.44 C13.88 11.83, 13.62 12.2, 13.34 12.53 C13.06 12.87, 12.75 13.19, 12.41 13.47 C12.08 13.76, 11.71 14.02, 11.33 14.24 C10.95 14.46, 10.55 14.65, 10.14 14.8 C9.73 14.95, 9.3 15.07, 8.87 15.14 C8.44 15.22, 7.99 15.26, 7.56 15.26 C7.12 15.26, 6.67 15.22, 6.24 15.14 C5.81 15.07, 5.38 14.95, 4.97 14.8 C4.56 14.65, 4.16 14.46, 3.78 14.24 C3.4 14.02, 3.03 13.76, 2.7 13.47 C2.36 13.19, 2.05 12.87, 1.77 12.53 C1.49 12.2, 1.23 11.83, 1.01 11.44 C0.79 11.06, 0.61 10.65, 0.46 10.24 C0.31 9.82, 0.19 9.39, 0.11 8.95 C0.04 8.52, 0 8.07, 0 7.63 C0 7.19, 0.04 6.74, 0.11 6.3 C0.19 5.87, 0.31 5.44, 0.46 5.02 C0.61 4.61, 0.79 4.2, 1.01 3.81 C1.23 3.43, 1.49 3.06, 1.77 2.73 C2.05 2.39, 2.36 2.07, 2.7 1.78 C3.03 1.5, 3.4 1.24, 3.78 1.02 C4.16 0.8, 4.56 0.61, 4.97 0.46 C5.38 0.31, 5.81 0.19, 6.24 0.12 C6.67 0.04, 7.12 0, 7.56 0 C7.99 0, 8.44 0.04, 8.87 0.12 C9.3 0.19, 9.73 0.31, 10.14 0.46 C10.55 0.61, 10.95 0.8, 11.33 1.02 C11.71 1.24, 12.08 1.5, 12.41 1.78 C12.75 2.07, 13.06 2.39, 13.34 2.73 C13.62 3.06, 13.88 3.43, 14.1 3.81 C14.32 4.2, 14.51 4.61, 14.65 5.02 C14.8 5.44, 14.92 5.87, 15 6.3 C15.07 6.74, 15.09 7.41, 15.11 7.63 C15.13 7.85, 15.13 7.41, 15.11 7.63" stroke="none" stroke-width="0" fill="#ffffff"></path><path d="M15.11 7.63 C15.11 8.07, 15.07 8.52, 15 8.95 C14.92 9.39, 14.8 9.82, 14.65 10.24 C14.51 10.65, 14.32 11.06, 14.1 11.44 C13.88 11.83, 13.62 12.2, 13.34 12.53 C13.06 12.87, 12.75 13.19, 12.41 13.47 C12.08 13.76, 11.71 14.02, 11.33 14.24 C10.95 14.46, 10.55 14.65, 10.14 14.8 C9.73 14.95, 9.3 15.07, 8.87 15.14 C8.44 15.22, 7.99 15.26, 7.56 15.26 C7.12 15.26, 6.67 15.22, 6.24 15.14 C5.81 15.07, 5.38 14.95, 4.97 14.8 C4.56 14.65, 4.16 14.46, 3.78 14.24 C3.4 14.02, 3.03 13.76, 2.7 13.47 C2.36 13.19, 2.05 12.87, 1.77 12.53 C1.49 12.2, 1.23 11.83, 1.01 11.44 C0.79 11.06, 0.61 10.65, 0.46 10.24 C0.31 9.82, 0.19 9.39, 0.11 8.95 C0.04 8.52, 0 8.07, 0 7.63 C0 7.19, 0.04 6.74, 0.11 6.3 C0.19 5.87, 0.31 5.44, 0.46 5.02 C0.61 4.61, 0.79 4.2, 1.01 3.81 C1.23 3.43, 1.49 3.06, 1.77 2.73 C2.05 2.39, 2.36 2.07, 2.7 1.78 C3.03 1.5, 3.4 1.24, 3.78 1.02 C4.16 0.8, 4.56 0.61, 4.97 0.46 C5.38 0.31, 5.81 0.19, 6.24 0.12 C6.67 0.04, 7.12 0, 7.56 0 C7.99 0, 8.44 0.04, 8.87 0.12 C9.3 0.19, 9.73 0.31, 10.14 0.46 C10.55 0.61, 10.95 0.8, 11.33 1.02 C11.71 1.24, 12.08 1.5, 12.41 1.78 C12.75 2.07, 13.06 2.39, 13.34 2.73 C13.62 3.06, 13.88 3.43, 14.1 3.81 C14.32 4.2, 14.51 4.61, 14.65 5.02 C14.8 5.44, 14.92 5.87, 15 6.3 C15.07 6.74, 15.09 7.41, 15.11 7.63 C15.13 7.85, 15.13 7.41, 15.11 7.63" stroke="#000000" stroke-width="1" fill="none"></path></g><g stroke-linecap="round"><g stroke-opacity="0.1" fill-opacity="0.1" transform="translate(292.55900533101 112.3089283812362) rotate(0 -3.7894147899975366 -7.417029500027525)" fill-rule="evenodd"><path d="M0 0 L-3.18 -1.86 L-5.63 -4.82 L-6.16 -8.71 L-4.89 -11.86 L-2.08 -14.13 L0.34 -14.97 L-3.85 -14.29 L-7.5 -10.27 L-7.95 -7.82 L-6.46 -2.53 L-1.92 0.07 L0 0" stroke="none" stroke-width="0" fill="#000000" fill-rule="evenodd"></path><path d="M0 0 C-0.53 -0.31, -2.24 -1.06, -3.18 -1.86 C-4.12 -2.67, -5.13 -3.67, -5.63 -4.82 C-6.12 -5.96, -6.28 -7.54, -6.16 -8.71 C-6.04 -9.88, -5.57 -10.96, -4.89 -11.86 C-4.21 -12.76, -2.95 -13.61, -2.08 -14.13 C-1.2 -14.65, 0.63 -14.95, 0.34 -14.97 C0.04 -15, -2.74 -14.77, -3.85 -14.29 C-4.96 -13.82, -5.7 -12.8, -6.31 -12.13 C-6.92 -11.47, -7.23 -10.99, -7.5 -10.27 C-7.77 -9.55, -7.93 -8.7, -7.95 -7.82 C-7.96 -6.94, -7.82 -5.87, -7.57 -4.99 C-7.32 -4.11, -6.93 -3.18, -6.46 -2.53 C-5.99 -1.89, -5.5 -1.55, -4.74 -1.12 C-3.99 -0.68, -2.71 -0.11, -1.92 0.07 C-1.13 0.26, -0.32 0.01, 0 0 M0 0 C-0.53 -0.31, -2.24 -1.06, -3.18 -1.86 C-4.12 -2.67, -5.13 -3.67, -5.63 -4.82 C-6.12 -5.96, -6.28 -7.54, -6.16 -8.71 C-6.04 -9.88, -5.57 -10.96, -4.89 -11.86 C-4.21 -12.76, -2.95 -13.61, -2.08 -14.13 C-1.2 -14.65, 0.63 -14.95, 0.34 -14.97 C0.04 -15, -2.74 -14.77, -3.85 -14.29 C-4.96 -13.82, -5.7 -12.8, -6.31 -12.13 C-6.92 -11.47, -7.23 -10.99, -7.5 -10.27 C-7.77 -9.55, -7.93 -8.7, -7.95 -7.82 C-7.96 -6.94, -7.82 -5.87, -7.57 -4.99 C-7.32 -4.11, -6.93 -3.18, -6.46 -2.53 C-5.99 -1.89, -5.5 -1.55, -4.74 -1.12 C-3.99 -0.68, -2.71 -0.11, -1.92 0.07 C-1.13 0.26, -0.32 0.01, 0 0" stroke="#000000" stroke-width="1" fill="none"></path></g></g><g stroke-linecap="round" transform="translate(284.24161255910553 97.19655848082891) rotate(0 7.555122748568358 7.629557455450808)"><path d="M15.11 7.63 C15.11 8.07, 15.07 8.52, 15 8.95 C14.92 9.39, 14.8 9.82, 14.65 10.24 C14.51 10.65, 14.32 11.06, 14.1 11.44 C13.88 11.83, 13.62 12.2, 13.34 12.53 C13.06 12.87, 12.75 13.19, 12.41 13.47 C12.08 13.76, 11.71 14.02, 11.33 14.24 C10.95 14.46, 10.55 14.65, 10.14 14.8 C9.73 14.95, 9.3 15.07, 8.87 15.14 C8.44 15.22, 7.99 15.26, 7.56 15.26 C7.12 15.26, 6.67 15.22, 6.24 15.14 C5.81 15.07, 5.38 14.95, 4.97 14.8 C4.56 14.65, 4.16 14.46, 3.78 14.24 C3.4 14.02, 3.03 13.76, 2.7 13.47 C2.36 13.19, 2.05 12.87, 1.77 12.53 C1.49 12.2, 1.23 11.83, 1.01 11.44 C0.79 11.06, 0.61 10.65, 0.46 10.24 C0.31 9.82, 0.19 9.39, 0.11 8.95 C0.04 8.52, 0 8.07, 0 7.63 C0 7.19, 0.04 6.74, 0.11 6.3 C0.19 5.87, 0.31 5.44, 0.46 5.02 C0.61 4.61, 0.79 4.2, 1.01 3.81 C1.23 3.43, 1.49 3.06, 1.77 2.73 C2.05 2.39, 2.36 2.07, 2.7 1.78 C3.03 1.5, 3.4 1.24, 3.78 1.02 C4.16 0.8, 4.56 0.61, 4.97 0.46 C5.38 0.31, 5.81 0.19, 6.24 0.12 C6.67 0.04, 7.12 0, 7.56 0 C7.99 0, 8.44 0.04, 8.87 0.12 C9.3 0.19, 9.73 0.31, 10.14 0.46 C10.55 0.61, 10.95 0.8, 11.33 1.02 C11.71 1.24, 12.08 1.5, 12.41 1.78 C12.75 2.07, 13.06 2.39, 13.34 2.73 C13.62 3.06, 13.88 3.43, 14.1 3.81 C14.32 4.2, 14.51 4.61, 14.65 5.02 C14.8 5.44, 14.92 5.87, 15 6.3 C15.07 6.74, 15.09 7.41, 15.11 7.63 C15.13 7.85, 15.13 7.41, 15.11 7.63" stroke="#000000" stroke-width="1" fill="none"></path></g><g stroke-linecap="round" transform="translate(287.5974904270761 104.86498597839338) rotate(0 1.5259114910901594 1.4514767842077134)"><path d="M3.05 1.45 C3.05 1.54, 3.04 1.62, 3.03 1.7 C3.01 1.79, 2.99 1.87, 2.96 1.95 C2.93 2.03, 2.89 2.1, 2.85 2.18 C2.8 2.25, 2.75 2.32, 2.69 2.38 C2.64 2.45, 2.57 2.51, 2.51 2.56 C2.44 2.62, 2.37 2.67, 2.29 2.71 C2.21 2.75, 2.13 2.79, 2.05 2.82 C1.96 2.84, 1.88 2.87, 1.79 2.88 C1.7 2.9, 1.61 2.9, 1.53 2.9 C1.44 2.9, 1.35 2.9, 1.26 2.88 C1.17 2.87, 1.09 2.84, 1 2.82 C0.92 2.79, 0.84 2.75, 0.76 2.71 C0.69 2.67, 0.61 2.62, 0.55 2.56 C0.48 2.51, 0.41 2.45, 0.36 2.38 C0.3 2.32, 0.25 2.25, 0.2 2.18 C0.16 2.1, 0.12 2.03, 0.09 1.95 C0.06 1.87, 0.04 1.79, 0.02 1.7 C0.01 1.62, 0 1.54, 0 1.45 C0 1.37, 0.01 1.28, 0.02 1.2 C0.04 1.12, 0.06 1.03, 0.09 0.96 C0.12 0.88, 0.16 0.8, 0.2 0.73 C0.25 0.65, 0.3 0.58, 0.36 0.52 C0.41 0.45, 0.48 0.39, 0.55 0.34 C0.61 0.29, 0.69 0.24, 0.76 0.19 C0.84 0.15, 0.92 0.12, 1 0.09 C1.09 0.06, 1.17 0.04, 1.26 0.02 C1.35 0.01, 1.44 0, 1.53 0 C1.61 0, 1.7 0.01, 1.79 0.02 C1.88 0.04, 1.96 0.06, 2.05 0.09 C2.13 0.12, 2.21 0.15, 2.29 0.19 C2.37 0.24, 2.44 0.29, 2.51 0.34 C2.57 0.39, 2.64 0.45, 2.69 0.52 C2.75 0.58, 2.8 0.65, 2.85 0.73 C2.89 0.8, 2.93 0.88, 2.96 0.96 C2.99 1.03, 3.01 1.12, 3.03 1.2 C3.04 1.28, 3.05 1.41, 3.05 1.45 C3.06 1.49, 3.06 1.41, 3.05 1.45" stroke="none" stroke-width="0" fill="#000000"></path><path d="M3.05 1.45 C3.05 1.54, 3.04 1.62, 3.03 1.7 C3.01 1.79, 2.99 1.87, 2.96 1.95 C2.93 2.03, 2.89 2.1, 2.85 2.18 C2.8 2.25, 2.75 2.32, 2.69 2.38 C2.64 2.45, 2.57 2.51, 2.51 2.56 C2.44 2.62, 2.37 2.67, 2.29 2.71 C2.21 2.75, 2.13 2.79, 2.05 2.82 C1.96 2.84, 1.88 2.87, 1.79 2.88 C1.7 2.9, 1.61 2.9, 1.53 2.9 C1.44 2.9, 1.35 2.9, 1.26 2.88 C1.17 2.87, 1.09 2.84, 1 2.82 C0.92 2.79, 0.84 2.75, 0.76 2.71 C0.69 2.67, 0.61 2.62, 0.55 2.56 C0.48 2.51, 0.41 2.45, 0.36 2.38 C0.3 2.32, 0.25 2.25, 0.2 2.18 C0.16 2.1, 0.12 2.03, 0.09 1.95 C0.06 1.87, 0.04 1.79, 0.02 1.7 C0.01 1.62, 0 1.54, 0 1.45 C0 1.37, 0.01 1.28, 0.02 1.2 C0.04 1.12, 0.06 1.03, 0.09 0.96 C0.12 0.88, 0.16 0.8, 0.2 0.73 C0.25 0.65, 0.3 0.58, 0.36 0.52 C0.41 0.45, 0.48 0.39, 0.55 0.34 C0.61 0.29, 0.69 0.24, 0.76 0.19 C0.84 0.15, 0.92 0.12, 1 0.09 C1.09 0.06, 1.17 0.04, 1.26 0.02 C1.35 0.01, 1.44 0, 1.53 0 C1.61 0, 1.7 0.01, 1.79 0.02 C1.88 0.04, 1.96 0.06, 2.05 0.09 C2.13 0.12, 2.21 0.15, 2.29 0.19 C2.37 0.24, 2.44 0.29, 2.51 0.34 C2.57 0.39, 2.64 0.45, 2.69 0.52 C2.75 0.58, 2.8 0.65, 2.85 0.73 C2.89 0.8, 2.93 0.88, 2.96 0.96 C2.99 1.03, 3.01 1.12, 3.03 1.2 C3.04 1.28, 3.05 1.41, 3.05 1.45 C3.06 1.49, 3.06 1.41, 3.05 1.45" stroke="#000000" stroke-width="1" fill="none"></path></g><g stroke-linecap="round" transform="translate(289.26410179728646 105.1156872942509) rotate(0 0.2977388275297841 0.37217353441224077)"><path d="M0.6 0.37 C0.6 0.39, 0.59 0.42, 0.59 0.44 C0.59 0.46, 0.58 0.48, 0.58 0.5 C0.57 0.52, 0.56 0.54, 0.56 0.56 C0.55 0.58, 0.54 0.59, 0.53 0.61 C0.51 0.63, 0.5 0.64, 0.49 0.66 C0.48 0.67, 0.46 0.68, 0.45 0.69 C0.43 0.71, 0.42 0.71, 0.4 0.72 C0.38 0.73, 0.37 0.73, 0.35 0.74 C0.33 0.74, 0.31 0.74, 0.3 0.74 C0.28 0.74, 0.26 0.74, 0.25 0.74 C0.23 0.73, 0.21 0.73, 0.2 0.72 C0.18 0.71, 0.16 0.71, 0.15 0.69 C0.13 0.68, 0.12 0.67, 0.11 0.66 C0.09 0.64, 0.08 0.63, 0.07 0.61 C0.06 0.59, 0.05 0.58, 0.04 0.56 C0.03 0.54, 0.02 0.52, 0.02 0.5 C0.01 0.48, 0.01 0.46, 0 0.44 C0 0.42, 0 0.39, 0 0.37 C0 0.35, 0 0.33, 0 0.31 C0.01 0.29, 0.01 0.27, 0.02 0.24 C0.02 0.22, 0.03 0.2, 0.04 0.19 C0.05 0.17, 0.06 0.15, 0.07 0.13 C0.08 0.12, 0.09 0.1, 0.11 0.09 C0.12 0.07, 0.13 0.06, 0.15 0.05 C0.16 0.04, 0.18 0.03, 0.2 0.02 C0.21 0.02, 0.23 0.01, 0.25 0.01 C0.26 0, 0.28 0, 0.3 0 C0.31 0, 0.33 0, 0.35 0.01 C0.37 0.01, 0.38 0.02, 0.4 0.02 C0.42 0.03, 0.43 0.04, 0.45 0.05 C0.46 0.06, 0.48 0.07, 0.49 0.09 C0.5 0.1, 0.51 0.12, 0.53 0.13 C0.54 0.15, 0.55 0.17, 0.56 0.19 C0.56 0.2, 0.57 0.22, 0.58 0.24 C0.58 0.27, 0.59 0.29, 0.59 0.31 C0.59 0.33, 0.59 0.36, 0.6 0.37 C0.6 0.38, 0.6 0.36, 0.6 0.37" stroke="none" stroke-width="0" fill="#ffffff"></path><path d="M0.6 0.37 C0.6 0.39, 0.59 0.42, 0.59 0.44 C0.59 0.46, 0.58 0.48, 0.58 0.5 C0.57 0.52, 0.56 0.54, 0.56 0.56 C0.55 0.58, 0.54 0.59, 0.53 0.61 C0.51 0.63, 0.5 0.64, 0.49 0.66 C0.48 0.67, 0.46 0.68, 0.45 0.69 C0.43 0.71, 0.42 0.71, 0.4 0.72 C0.38 0.73, 0.37 0.73, 0.35 0.74 C0.33 0.74, 0.31 0.74, 0.3 0.74 C0.28 0.74, 0.26 0.74, 0.25 0.74 C0.23 0.73, 0.21 0.73, 0.2 0.72 C0.18 0.71, 0.16 0.71, 0.15 0.69 C0.13 0.68, 0.12 0.67, 0.11 0.66 C0.09 0.64, 0.08 0.63, 0.07 0.61 C0.06 0.59, 0.05 0.58, 0.04 0.56 C0.03 0.54, 0.02 0.52, 0.02 0.5 C0.01 0.48, 0.01 0.46, 0 0.44 C0 0.42, 0 0.39, 0 0.37 C0 0.35, 0 0.33, 0 0.31 C0.01 0.29, 0.01 0.27, 0.02 0.24 C0.02 0.22, 0.03 0.2, 0.04 0.19 C0.05 0.17, 0.06 0.15, 0.07 0.13 C0.08 0.12, 0.09 0.1, 0.11 0.09 C0.12 0.07, 0.13 0.06, 0.15 0.05 C0.16 0.04, 0.18 0.03, 0.2 0.02 C0.21 0.02, 0.23 0.01, 0.25 0.01 C0.26 0, 0.28 0, 0.3 0 C0.31 0, 0.33 0, 0.35 0.01 C0.37 0.01, 0.38 0.02, 0.4 0.02 C0.42 0.03, 0.43 0.04, 0.45 0.05 C0.46 0.06, 0.48 0.07, 0.49 0.09 C0.5 0.1, 0.51 0.12, 0.53 0.13 C0.54 0.15, 0.55 0.17, 0.56 0.19 C0.56 0.2, 0.57 0.22, 0.58 0.24 C0.58 0.27, 0.59 0.29, 0.59 0.31 C0.59 0.33, 0.59 0.36, 0.6 0.37 C0.6 0.38, 0.6 0.36, 0.6 0.37" stroke="#ffffff" stroke-width="1" fill="none"></path></g><g stroke-linecap="round" transform="translate(301.7161866493818 97.2529735095734) rotate(0 8.539569730931007 8.623703422861368)"><path d="M17.08 8.62 C17.08 9.12, 17.04 9.63, 16.95 10.12 C16.86 10.61, 16.73 11.1, 16.56 11.57 C16.4 12.04, 16.18 12.5, 15.94 12.94 C15.69 13.37, 15.4 13.78, 15.08 14.17 C14.76 14.55, 14.41 14.91, 14.03 15.23 C13.65 15.55, 13.24 15.84, 12.81 16.09 C12.38 16.34, 11.92 16.56, 11.46 16.73 C11 16.9, 10.51 17.03, 10.02 17.12 C9.54 17.2, 9.03 17.25, 8.54 17.25 C8.05 17.25, 7.54 17.2, 7.06 17.12 C6.57 17.03, 6.08 16.9, 5.62 16.73 C5.15 16.56, 4.7 16.34, 4.27 16.09 C3.84 15.84, 3.43 15.55, 3.05 15.23 C2.67 14.91, 2.32 14.55, 2 14.17 C1.68 13.78, 1.39 13.37, 1.14 12.94 C0.9 12.5, 0.68 12.04, 0.51 11.57 C0.35 11.1, 0.22 10.61, 0.13 10.12 C0.04 9.63, 0 9.12, 0 8.62 C0 8.12, 0.04 7.62, 0.13 7.13 C0.22 6.63, 0.35 6.14, 0.51 5.67 C0.68 5.21, 0.9 4.74, 1.14 4.31 C1.39 3.88, 1.68 3.46, 2 3.08 C2.32 2.7, 2.67 2.34, 3.05 2.02 C3.43 1.7, 3.84 1.4, 4.27 1.16 C4.7 0.91, 5.15 0.69, 5.62 0.52 C6.08 0.35, 6.57 0.22, 7.06 0.13 C7.54 0.04, 8.05 0, 8.54 0 C9.03 0, 9.54 0.04, 10.02 0.13 C10.51 0.22, 11 0.35, 11.46 0.52 C11.92 0.69, 12.38 0.91, 12.81 1.16 C13.24 1.4, 13.65 1.7, 14.03 2.02 C14.41 2.34, 14.76 2.7, 15.08 3.08 C15.4 3.46, 15.69 3.88, 15.94 4.31 C16.18 4.74, 16.4 5.21, 16.56 5.67 C16.73 6.14, 16.86 6.63, 16.95 7.13 C17.04 7.62, 17.06 8.37, 17.08 8.62 C17.1 8.87, 17.1 8.37, 17.08 8.62" stroke="none" stroke-width="0" fill="#ffffff"></path><path d="M17.08 8.62 C17.08 9.12, 17.04 9.63, 16.95 10.12 C16.86 10.61, 16.73 11.1, 16.56 11.57 C16.4 12.04, 16.18 12.5, 15.94 12.94 C15.69 13.37, 15.4 13.78, 15.08 14.17 C14.76 14.55, 14.41 14.91, 14.03 15.23 C13.65 15.55, 13.24 15.84, 12.81 16.09 C12.38 16.34, 11.92 16.56, 11.46 16.73 C11 16.9, 10.51 17.03, 10.02 17.12 C9.54 17.2, 9.03 17.25, 8.54 17.25 C8.05 17.25, 7.54 17.2, 7.06 17.12 C6.57 17.03, 6.08 16.9, 5.62 16.73 C5.15 16.56, 4.7 16.34, 4.27 16.09 C3.84 15.84, 3.43 15.55, 3.05 15.23 C2.67 14.91, 2.32 14.55, 2 14.17 C1.68 13.78, 1.39 13.37, 1.14 12.94 C0.9 12.5, 0.68 12.04, 0.51 11.57 C0.35 11.1, 0.22 10.61, 0.13 10.12 C0.04 9.63, 0 9.12, 0 8.62 C0 8.12, 0.04 7.62, 0.13 7.13 C0.22 6.63, 0.35 6.14, 0.51 5.67 C0.68 5.21, 0.9 4.74, 1.14 4.31 C1.39 3.88, 1.68 3.46, 2 3.08 C2.32 2.7, 2.67 2.34, 3.05 2.02 C3.43 1.7, 3.84 1.4, 4.27 1.16 C4.7 0.91, 5.15 0.69, 5.62 0.52 C6.08 0.35, 6.57 0.22, 7.06 0.13 C7.54 0.04, 8.05 0, 8.54 0 C9.03 0, 9.54 0.04, 10.02 0.13 C10.51 0.22, 11 0.35, 11.46 0.52 C11.92 0.69, 12.38 0.91, 12.81 1.16 C13.24 1.4, 13.65 1.7, 14.03 2.02 C14.41 2.34, 14.76 2.7, 15.08 3.08 C15.4 3.46, 15.69 3.88, 15.94 4.31 C16.18 4.74, 16.4 5.21, 16.56 5.67 C16.73 6.14, 16.86 6.63, 16.95 7.13 C17.04 7.62, 17.06 8.37, 17.08 8.62 C17.1 8.87, 17.1 8.37, 17.08 8.62" stroke="#000000" stroke-width="1" fill="none"></path></g><g stroke-linecap="round"><g stroke-opacity="0.1" fill-opacity="0.1" transform="translate(313.98579942724155 113.56460237477219) rotate(0 -6.041288689527438 -7.373527232280608)" fill-rule="evenodd"><path d="M0 0 L-3.17 0.01 L-7.14 -1.44 L-10.13 -5.63 L-10.03 -9.11 L-8.6 -12.67 L-5.41 -15.23 L-2.69 -16.19 L-7.42 -15.42 L-11.54 -10.87 L-12.47 -5.09 L-11.92 -2.95 L-9.2 0.03 L-6.6 1.12 L-3.37 1.37 L0.41 0.04" stroke="none" stroke-width="0" fill="#000000" fill-rule="evenodd"></path><path d="M0 0 C-0.26 0.03, -1.05 0.19, -1.58 0.19 C-2.11 0.19, -2.57 0.12, -3.17 0.01 C-3.78 -0.1, -4.56 -0.25, -5.22 -0.5 C-5.88 -0.74, -6.57 -1.01, -7.14 -1.44 C-7.71 -1.87, -8.15 -2.38, -8.65 -3.08 C-9.14 -3.78, -9.9 -4.62, -10.13 -5.63 C-10.36 -6.63, -10.28 -7.93, -10.03 -9.11 C-9.77 -10.28, -9.37 -11.64, -8.6 -12.67 C-7.83 -13.69, -6.4 -14.65, -5.41 -15.23 C-4.43 -15.82, -2.35 -16.16, -2.69 -16.19 C-3.02 -16.22, -6.17 -15.95, -7.42 -15.42 C-8.67 -14.88, -9.51 -13.74, -10.19 -12.98 C-10.88 -12.22, -11.19 -11.69, -11.54 -10.87 C-11.89 -10.06, -12.11 -9.03, -12.27 -8.06 C-12.42 -7.1, -12.53 -5.94, -12.47 -5.09 C-12.42 -4.23, -12.18 -3.56, -11.92 -2.95 C-11.67 -2.35, -11.41 -1.96, -10.95 -1.46 C-10.5 -0.96, -9.93 -0.4, -9.2 0.03 C-8.48 0.46, -7.57 0.89, -6.6 1.12 C-5.62 1.34, -4.53 1.55, -3.37 1.37 C-2.2 1.19, -0.22 0.26, 0.41 0.04 M0 0 C-0.26 0.03, -1.05 0.19, -1.58 0.19 C-2.11 0.19, -2.57 0.12, -3.17 0.01 C-3.78 -0.1, -4.56 -0.25, -5.22 -0.5 C-5.88 -0.74, -6.57 -1.01, -7.14 -1.44 C-7.71 -1.87, -8.15 -2.38, -8.65 -3.08 C-9.14 -3.78, -9.9 -4.62, -10.13 -5.63 C-10.36 -6.63, -10.28 -7.93, -10.03 -9.11 C-9.77 -10.28, -9.37 -11.64, -8.6 -12.67 C-7.83 -13.69, -6.4 -14.65, -5.41 -15.23 C-4.43 -15.82, -2.35 -16.16, -2.69 -16.19 C-3.02 -16.22, -6.17 -15.95, -7.42 -15.42 C-8.67 -14.88, -9.51 -13.74, -10.19 -12.98 C-10.88 -12.22, -11.19 -11.69, -11.54 -10.87 C-11.89 -10.06, -12.11 -9.03, -12.27 -8.06 C-12.42 -7.1, -12.53 -5.94, -12.47 -5.09 C-12.42 -4.23, -12.18 -3.56, -11.92 -2.95 C-11.67 -2.35, -11.41 -1.96, -10.95 -1.46 C-10.5 -0.96, -9.93 -0.4, -9.2 0.03 C-8.48 0.46, -7.57 0.89, -6.6 1.12 C-5.62 1.34, -4.53 1.55, -3.37 1.37 C-2.2 1.19, -0.22 0.26, 0.41 0.04" stroke="#000000" stroke-width="1" fill="none"></path></g></g><g stroke-linecap="round" transform="translate(301.8181664010858 97.14507639986238) rotate(0 8.539569730931007 8.623703422861368)"><path d="M17.08 8.62 C17.08 9.12, 17.04 9.63, 16.95 10.12 C16.86 10.61, 16.73 11.1, 16.56 11.57 C16.4 12.04, 16.18 12.5, 15.94 12.94 C15.69 13.37, 15.4 13.78, 15.08 14.17 C14.76 14.55, 14.41 14.91, 14.03 15.23 C13.65 15.55, 13.24 15.84, 12.81 16.09 C12.38 16.34, 11.92 16.56, 11.46 16.73 C11 16.9, 10.51 17.03, 10.02 17.12 C9.54 17.2, 9.03 17.25, 8.54 17.25 C8.05 17.25, 7.54 17.2, 7.06 17.12 C6.57 17.03, 6.08 16.9, 5.62 16.73 C5.15 16.56, 4.7 16.34, 4.27 16.09 C3.84 15.84, 3.43 15.55, 3.05 15.23 C2.67 14.91, 2.32 14.55, 2 14.17 C1.68 13.78, 1.39 13.37, 1.14 12.94 C0.9 12.5, 0.68 12.04, 0.51 11.57 C0.35 11.1, 0.22 10.61, 0.13 10.12 C0.04 9.63, 0 9.12, 0 8.62 C0 8.12, 0.04 7.62, 0.13 7.13 C0.22 6.63, 0.35 6.14, 0.51 5.67 C0.68 5.21, 0.9 4.74, 1.14 4.31 C1.39 3.88, 1.68 3.46, 2 3.08 C2.32 2.7, 2.67 2.34, 3.05 2.02 C3.43 1.7, 3.84 1.4, 4.27 1.16 C4.7 0.91, 5.15 0.69, 5.62 0.52 C6.08 0.35, 6.57 0.22, 7.06 0.13 C7.54 0.04, 8.05 0, 8.54 0 C9.03 0, 9.54 0.04, 10.02 0.13 C10.51 0.22, 11 0.35, 11.46 0.52 C11.92 0.69, 12.38 0.91, 12.81 1.16 C13.24 1.4, 13.65 1.7, 14.03 2.02 C14.41 2.34, 14.76 2.7, 15.08 3.08 C15.4 3.46, 15.69 3.88, 15.94 4.31 C16.18 4.74, 16.4 5.21, 16.56 5.67 C16.73 6.14, 16.86 6.63, 16.95 7.13 C17.04 7.62, 17.06 8.37, 17.08 8.62 C17.1 8.87, 17.1 8.37, 17.08 8.62" stroke="#000000" stroke-width="1" fill="none"></path></g><g stroke-linecap="round" transform="translate(305.72508112547507 105.19545817415423) rotate(0 1.7247406845722715 1.6406069926419207)"><path d="M3.45 1.64 C3.45 1.74, 3.44 1.83, 3.42 1.93 C3.41 2.02, 3.38 2.11, 3.35 2.2 C3.31 2.29, 3.27 2.38, 3.22 2.46 C3.17 2.54, 3.11 2.62, 3.05 2.7 C2.98 2.77, 2.91 2.84, 2.83 2.9 C2.76 2.96, 2.67 3.01, 2.59 3.06 C2.5 3.11, 2.41 3.15, 2.31 3.18 C2.22 3.21, 2.12 3.24, 2.02 3.26 C1.93 3.27, 1.82 3.28, 1.72 3.28 C1.62 3.28, 1.52 3.27, 1.43 3.26 C1.33 3.24, 1.23 3.21, 1.13 3.18 C1.04 3.15, 0.95 3.11, 0.86 3.06 C0.78 3.01, 0.69 2.96, 0.62 2.9 C0.54 2.84, 0.47 2.77, 0.4 2.7 C0.34 2.62, 0.28 2.54, 0.23 2.46 C0.18 2.38, 0.14 2.29, 0.1 2.2 C0.07 2.11, 0.04 2.02, 0.03 1.93 C0.01 1.83, 0 1.74, 0 1.64 C0 1.55, 0.01 1.45, 0.03 1.36 C0.04 1.26, 0.07 1.17, 0.1 1.08 C0.14 0.99, 0.18 0.9, 0.23 0.82 C0.28 0.74, 0.34 0.66, 0.4 0.59 C0.47 0.51, 0.54 0.44, 0.62 0.38 C0.69 0.32, 0.78 0.27, 0.86 0.22 C0.95 0.17, 1.04 0.13, 1.13 0.1 C1.23 0.07, 1.33 0.04, 1.43 0.02 C1.52 0.01, 1.62 0, 1.72 0 C1.82 0, 1.93 0.01, 2.02 0.02 C2.12 0.04, 2.22 0.07, 2.31 0.1 C2.41 0.13, 2.5 0.17, 2.59 0.22 C2.67 0.27, 2.76 0.32, 2.83 0.38 C2.91 0.44, 2.98 0.51, 3.05 0.59 C3.11 0.66, 3.17 0.74, 3.22 0.82 C3.27 0.9, 3.31 0.99, 3.35 1.08 C3.38 1.17, 3.41 1.26, 3.42 1.36 C3.44 1.45, 3.45 1.59, 3.45 1.64 C3.45 1.69, 3.45 1.59, 3.45 1.64" stroke="none" stroke-width="0" fill="#000000"></path><path d="M3.45 1.64 C3.45 1.74, 3.44 1.83, 3.42 1.93 C3.41 2.02, 3.38 2.11, 3.35 2.2 C3.31 2.29, 3.27 2.38, 3.22 2.46 C3.17 2.54, 3.11 2.62, 3.05 2.7 C2.98 2.77, 2.91 2.84, 2.83 2.9 C2.76 2.96, 2.67 3.01, 2.59 3.06 C2.5 3.11, 2.41 3.15, 2.31 3.18 C2.22 3.21, 2.12 3.24, 2.02 3.26 C1.93 3.27, 1.82 3.28, 1.72 3.28 C1.62 3.28, 1.52 3.27, 1.43 3.26 C1.33 3.24, 1.23 3.21, 1.13 3.18 C1.04 3.15, 0.95 3.11, 0.86 3.06 C0.78 3.01, 0.69 2.96, 0.62 2.9 C0.54 2.84, 0.47 2.77, 0.4 2.7 C0.34 2.62, 0.28 2.54, 0.23 2.46 C0.18 2.38, 0.14 2.29, 0.1 2.2 C0.07 2.11, 0.04 2.02, 0.03 1.93 C0.01 1.83, 0 1.74, 0 1.64 C0 1.55, 0.01 1.45, 0.03 1.36 C0.04 1.26, 0.07 1.17, 0.1 1.08 C0.14 0.99, 0.18 0.9, 0.23 0.82 C0.28 0.74, 0.34 0.66, 0.4 0.59 C0.47 0.51, 0.54 0.44, 0.62 0.38 C0.69 0.32, 0.78 0.27, 0.86 0.22 C0.95 0.17, 1.04 0.13, 1.13 0.1 C1.23 0.07, 1.33 0.04, 1.43 0.02 C1.52 0.01, 1.62 0, 1.72 0 C1.82 0, 1.93 0.01, 2.02 0.02 C2.12 0.04, 2.22 0.07, 2.31 0.1 C2.41 0.13, 2.5 0.17, 2.59 0.22 C2.67 0.27, 2.76 0.32, 2.83 0.38 C2.91 0.44, 2.98 0.51, 3.05 0.59 C3.11 0.66, 3.17 0.74, 3.22 0.82 C3.27 0.9, 3.31 0.99, 3.35 1.08 C3.38 1.17, 3.41 1.26, 3.42 1.36 C3.44 1.45, 3.45 1.59, 3.45 1.64 C3.45 1.69, 3.45 1.59, 3.45 1.64" stroke="#000000" stroke-width="1" fill="none"></path></g><g stroke-linecap="round" transform="translate(307.60885515323275 105.54262625980468) rotate(0 0.33653476772141744 0.4206684596517789)"><path d="M0.67 0.42 C0.67 0.45, 0.67 0.47, 0.67 0.49 C0.66 0.52, 0.66 0.54, 0.65 0.56 C0.65 0.59, 0.64 0.61, 0.63 0.63 C0.62 0.65, 0.61 0.67, 0.59 0.69 C0.58 0.71, 0.57 0.73, 0.55 0.74 C0.54 0.76, 0.52 0.77, 0.5 0.78 C0.49 0.8, 0.47 0.81, 0.45 0.82 C0.43 0.82, 0.41 0.83, 0.39 0.83 C0.38 0.84, 0.36 0.84, 0.34 0.84 C0.32 0.84, 0.3 0.84, 0.28 0.83 C0.26 0.83, 0.24 0.82, 0.22 0.82 C0.2 0.81, 0.19 0.8, 0.17 0.78 C0.15 0.77, 0.14 0.76, 0.12 0.74 C0.11 0.73, 0.09 0.71, 0.08 0.69 C0.07 0.67, 0.05 0.65, 0.05 0.63 C0.04 0.61, 0.03 0.59, 0.02 0.56 C0.01 0.54, 0.01 0.52, 0.01 0.49 C0 0.47, 0 0.45, 0 0.42 C0 0.4, 0 0.37, 0.01 0.35 C0.01 0.32, 0.01 0.3, 0.02 0.28 C0.03 0.25, 0.04 0.23, 0.05 0.21 C0.05 0.19, 0.07 0.17, 0.08 0.15 C0.09 0.13, 0.11 0.11, 0.12 0.1 C0.14 0.08, 0.15 0.07, 0.17 0.06 C0.19 0.04, 0.2 0.03, 0.22 0.03 C0.24 0.02, 0.26 0.01, 0.28 0.01 C0.3 0, 0.32 0, 0.34 0 C0.36 0, 0.38 0, 0.39 0.01 C0.41 0.01, 0.43 0.02, 0.45 0.03 C0.47 0.03, 0.49 0.04, 0.5 0.06 C0.52 0.07, 0.54 0.08, 0.55 0.1 C0.57 0.11, 0.58 0.13, 0.59 0.15 C0.61 0.17, 0.62 0.19, 0.63 0.21 C0.64 0.23, 0.65 0.25, 0.65 0.28 C0.66 0.3, 0.66 0.32, 0.67 0.35 C0.67 0.37, 0.67 0.41, 0.67 0.42 C0.67 0.43, 0.67 0.41, 0.67 0.42" stroke="none" stroke-width="0" fill="#ffffff"></path><path d="M0.67 0.42 C0.67 0.45, 0.67 0.47, 0.67 0.49 C0.66 0.52, 0.66 0.54, 0.65 0.56 C0.65 0.59, 0.64 0.61, 0.63 0.63 C0.62 0.65, 0.61 0.67, 0.59 0.69 C0.58 0.71, 0.57 0.73, 0.55 0.74 C0.54 0.76, 0.52 0.77, 0.5 0.78 C0.49 0.8, 0.47 0.81, 0.45 0.82 C0.43 0.82, 0.41 0.83, 0.39 0.83 C0.38 0.84, 0.36 0.84, 0.34 0.84 C0.32 0.84, 0.3 0.84, 0.28 0.83 C0.26 0.83, 0.24 0.82, 0.22 0.82 C0.2 0.81, 0.19 0.8, 0.17 0.78 C0.15 0.77, 0.14 0.76, 0.12 0.74 C0.11 0.73, 0.09 0.71, 0.08 0.69 C0.07 0.67, 0.05 0.65, 0.05 0.63 C0.04 0.61, 0.03 0.59, 0.02 0.56 C0.01 0.54, 0.01 0.52, 0.01 0.49 C0 0.47, 0 0.45, 0 0.42 C0 0.4, 0 0.37, 0.01 0.35 C0.01 0.32, 0.01 0.3, 0.02 0.28 C0.03 0.25, 0.04 0.23, 0.05 0.21 C0.05 0.19, 0.07 0.17, 0.08 0.15 C0.09 0.13, 0.11 0.11, 0.12 0.1 C0.14 0.08, 0.15 0.07, 0.17 0.06 C0.19 0.04, 0.2 0.03, 0.22 0.03 C0.24 0.02, 0.26 0.01, 0.28 0.01 C0.3 0, 0.32 0, 0.34 0 C0.36 0, 0.38 0, 0.39 0.01 C0.41 0.01, 0.43 0.02, 0.45 0.03 C0.47 0.03, 0.49 0.04, 0.5 0.06 C0.52 0.07, 0.54 0.08, 0.55 0.1 C0.57 0.11, 0.58 0.13, 0.59 0.15 C0.61 0.17, 0.62 0.19, 0.63 0.21 C0.64 0.23, 0.65 0.25, 0.65 0.28 C0.66 0.3, 0.66 0.32, 0.67 0.35 C0.67 0.37, 0.67 0.41, 0.67 0.42 C0.67 0.43, 0.67 0.41, 0.67 0.42" stroke="#ffffff" stroke-width="1" fill="none"></path></g><g stroke-linecap="round"><g transform="translate(310.73105950232093 153.147434948855) rotate(44.56478741533535 1.5037814736182789 -0.2540772321437572)" fill-rule="evenodd"><path d="M0 0 L1.97 1.75 L3.34 1.22 L3.49 0.01 L1.97 -1.89 L0 -1.97 L-0.6 -1.18 L0 0" stroke="none" stroke-width="0" fill="#ffffff" fill-rule="evenodd"></path><path d="M0 0 C0.1 0.13, 0.26 0.48, 0.59 0.77 C0.92 1.07, 1.51 1.68, 1.97 1.75 C2.43 1.82, 3.08 1.51, 3.34 1.22 C3.59 0.93, 3.71 0.52, 3.49 0.01 C3.26 -0.51, 2.4 -1.51, 1.97 -1.89 C1.54 -2.27, 1.24 -2.26, 0.91 -2.27 C0.58 -2.28, 0.25 -2.15, 0 -1.97 C-0.25 -1.78, -0.6 -1.51, -0.6 -1.18 C-0.6 -0.85, -0.1 -0.2, 0 0 M0 0 C0.1 0.13, 0.26 0.48, 0.59 0.77 C0.92 1.07, 1.51 1.68, 1.97 1.75 C2.43 1.82, 3.08 1.51, 3.34 1.22 C3.59 0.93, 3.71 0.52, 3.49 0.01 C3.26 -0.51, 2.4 -1.51, 1.97 -1.89 C1.54 -2.27, 1.24 -2.26, 0.91 -2.27 C0.58 -2.28, 0.25 -2.15, 0 -1.97 C-0.25 -1.78, -0.6 -1.51, -0.6 -1.18 C-0.6 -0.85, -0.1 -0.2, 0 0" stroke="#000000" stroke-width="1" fill="none"></path></g></g><g stroke-linecap="round"><g transform="translate(312.84454515065386 128.79774382631456) rotate(58.94331593365666 1.216694694378777 -0.06105562265793196)" fill-rule="evenodd"><path d="M0 0 L1.92 2.13 L3.06 1.41 L0.62 -2.23 L-0.62 -1.37 L0 0" stroke="none" stroke-width="0" fill="#ffffff" fill-rule="evenodd"></path><path d="M0 0 C0.13 0.17, 0.44 0.66, 0.76 1.01 C1.08 1.37, 1.54 2.07, 1.92 2.13 C2.31 2.2, 2.98 1.75, 3.06 1.41 C3.14 1.07, 2.64 0.54, 2.39 0.11 C2.14 -0.32, 1.85 -0.8, 1.56 -1.19 C1.27 -1.58, 0.93 -2.12, 0.62 -2.23 C0.32 -2.35, -0.08 -2.05, -0.29 -1.91 C-0.49 -1.76, -0.59 -1.55, -0.62 -1.37 C-0.66 -1.19, -0.6 -1.05, -0.5 -0.82 C-0.39 -0.59, -0.08 -0.14, 0 0 M0 0 C0.13 0.17, 0.44 0.66, 0.76 1.01 C1.08 1.37, 1.54 2.07, 1.92 2.13 C2.31 2.2, 2.98 1.75, 3.06 1.41 C3.14 1.07, 2.64 0.54, 2.39 0.11 C2.14 -0.32, 1.85 -0.8, 1.56 -1.19 C1.27 -1.58, 0.93 -2.12, 0.62 -2.23 C0.32 -2.35, -0.08 -2.05, -0.29 -1.91 C-0.49 -1.76, -0.59 -1.55, -0.62 -1.37 C-0.66 -1.19, -0.6 -1.05, -0.5 -0.82 C-0.39 -0.59, -0.08 -0.14, 0 0" stroke="#000000" stroke-width="1" fill="none"></path></g></g><g stroke-opacity="0.3" fill-opacity="0.3" transform="translate(10 10) rotate(0 121.20483613098607 104.28714389855398)"><text x="0" y="143.57428779710796" font-family="Helvetica, Segoe UI Emoji" font-size="173.93924789571645px" fill="#007d9c" text-anchor="start" style="white-space: pre;" direction="ltr">mq</text></g><g transform="translate(251.07259535796925 10.26822030207137) rotate(0 50.52132748863282 104.28714389855398)"><text x="0" y="143.57428779710796" font-family="Helvetica, Segoe UI Emoji" font-size="173.73309207350837px" fill="#007d9c" text-anchor="start" style="white-space: pre;" direction="ltr">tt</text></g></svg>